<svg xmlns:xlink="http://www.w3.org/1999/xlink" role="img" fill="currentColor" stroke="currentColor" aria-label="Sheet Music for &quot;C Major Scale - one octave, both hands&quot;" viewBox="0 0 476 213.8075" preserveAspectRatio="xMinYMin meet" style="display: inline-block; position: absolute; top: 0px; left: 0px;"><style>.abcjs-dragging-in-progress text, .abcjs-dragging-in-progress tspan {-webkit-touch-callout: none; -webkit-user-select: none; -khtml-user-select: none; -moz-user-select: none; -ms-user-select: none; user-select: none;}</style><title>Sheet Music for "C Major Scale - one octave, both hands"</title><g><text stroke="none" font-size="27" font-style="normal" font-family="Times New Roman" font-weight="normal" text-decoration="none" class="" text-anchor="middle" x="238" y="42.56" data-name="title"><tspan x="238">C Major Scale - one octave, both hands</tspan></text></g><g><g><path d="M 8 78.02 L 468 78.02 L 468 78.72 L 8 78.72 z" stroke="none" fill="currentColor" class="abcjs-top-line"></path><path d="M 8 85.77 L 468 85.77 L 468 86.47 L 8 86.47 z" stroke="none" fill="currentColor"></path><path d="M 8 93.52 L 468 93.52 L 468 94.22 L 8 94.22 z" stroke="none" fill="currentColor"></path><path d="M 8 101.27 L 468 101.27 L 468 101.97 L 8 101.97 z" stroke="none" fill="currentColor"></path><path d="M 8 109.02 L 468 109.02 L 468 109.72 L 8 109.72 z" stroke="none" fill="currentColor"></path></g><g class="" fill="currentColor" stroke="none" data-name="staff-extra clef"><path data-name="clefs.G" d="M 22.689999999999998 64.21000000000001c 0.09 -0.09 0.24 -0.06 0.36 0c 0.12 0.09 0.57 0.6 0.96 1.11c 1.77 2.34 3.21 5.85 3.57 8.73c 0.21 1.56 0.03 3.27 -0.45 4.86c -0.69 2.31 -1.92 4.47 -4.23 7.44c -0.3 0.39 -0.57 0.72 -0.6 0.75c -0.03 0.06 0 0.15 0.18 0.78c 0.54 1.68 1.38 4.44 1.68 5.49l 0.09 0.42l 0.39 0c 1.47 0.09 2.76 0.51 3.96 1.29c 1.83 1.23 3.06 3.21 3.39 5.52c 0.09 0.45 0.12 1.29 0.06 1.74c -0.09 1.02 -0.33 1.83 -0.75 2.73c -0.84 1.71 -2.28 3.06 -4.02 3.72l -0.33 0.12l 0.03 1.26c 0 1.74 -0.06 3.63 -0.21 4.62c -0.45 3.06 -2.19 5.49 -4.47 6.21c -0.57 0.18 -0.9 0.21 -1.59 0.21c -0.69 0 -1.02 -0.03 -1.65 -0.21c -1.14 -0.27 -2.13 -0.84 -2.94 -1.65c -0.99 -0.99 -1.56 -2.16 -1.71 -3.54c -0.09 -0.81 0.06 -1.53 0.45 -2.13c 0.63 -0.99 1.83 -1.56 3 -1.53c 1.5 0.09 2.64 1.32 2.73 2.94c 0.06 1.47 -0.93 2.7 -2.37 2.97c -0.45 0.06 -0.84 0.03 -1.29 -0.09l -0.21 -0.09l 0.09 0.12c 0.39 0.54 0.78 0.93 1.32 1.26c 1.35 0.87 3.06 1.02 4.35 0.36c 1.44 -0.72 2.52 -2.28 2.97 -4.35c 0.15 -0.66 0.24 -1.5 0.3 -3.03c 0.03 -0.84 0.03 -2.94 0 -3c -0.03 0 -0.18 0 -0.36 0.03c -0.66 0.12 -0.99 0.12 -1.83 0.12c -1.05 0 -1.71 -0.06 -2.61 -0.3c -4.02 -0.99 -7.11 -4.35 -7.8 -8.46c -0.12 -0.66 -0.12 -0.99 -0.12 -1.83c 0 -0.84 0 -1.14 0.15 -1.92c 0.36 -2.28 1.41 -4.62 3.3 -7.29l 2.79 -3.6c 0.54 -0.66 0.96 -1.2 0.96 -1.23c 0 -0.03 -0.09 -0.33 -0.18 -0.69c -0.96 -3.21 -1.41 -5.28 -1.59 -7.68c -0.12 -1.38 -0.15 -3.09 -0.06 -3.96c 0.33 -2.67 1.38 -5.07 3.12 -7.08c 0.36 -0.42 0.99 -1.05 1.17 -1.14zm 2.01 4.71c -0.15 -0.3 -0.3 -0.54 -0.3 -0.54c -0.03 0 -0.18 0.09 -0.3 0.21c -2.4 1.74 -3.87 4.2 -4.26 7.11c -0.06 0.54 -0.06 1.41 -0.03 1.89c 0.09 1.29 0.48 3.12 1.08 5.22c 0.15 0.42 0.24 0.78 0.24 0.81c 0 0.03 0.84 -1.11 1.23 -1.68c 1.89 -2.73 2.88 -5.07 3.15 -7.53c 0.09 -0.57 0.12 -1.74 0.06 -2.37c -0.09 -1.23 -0.27 -1.92 -0.87 -3.12zm -2.94 20.7c -0.21 -0.72 -0.39 -1.32 -0.42 -1.32c 0 0 -1.2 1.47 -1.86 2.37c -2.79 3.63 -4.02 6.3 -4.35 9.3c -0.03 0.21 -0.03 0.69 -0.03 1.08c 0 0.69 0 0.75 0.06 1.11c 0.12 0.54 0.27 0.99 0.51 1.47c 0.69 1.38 1.83 2.55 3.42 3.42c 0.96 0.54 2.07 0.9 3.21 1.08c 0.78 0.12 2.04 0.12 2.94 -0.03c 0.51 -0.06 0.45 -0.03 0.42 -0.3c -0.24 -3.33 -0.72 -6.33 -1.62 -10.08c -0.09 -0.39 -0.18 -0.75 -0.18 -0.78c -0.03 -0.03 -0.42 0 -0.81 0.09c -0.9 0.18 -1.65 0.57 -2.22 1.14c -0.72 0.72 -1.08 1.65 -1.05 2.64c 0.06 0.96 0.48 1.83 1.23 2.58c 0.36 0.36 0.72 0.63 1.17 0.9c 0.33 0.18 0.36 0.21 0.42 0.33c 0.18 0.42 -0.18 0.9 -0.6 0.87c -0.18 -0.03 -0.84 -0.36 -1.26 -0.63c -0.78 -0.51 -1.38 -1.11 -1.86 -1.83c -1.77 -2.7 -0.99 -6.42 1.71 -8.19c 0.3 -0.21 0.81 -0.48 1.17 -0.63c 0.3 -0.09 1.02 -0.3 1.14 -0.3c 0.06 0 0.09 0 0.09 -0.03c 0.03 -0.03 -0.51 -1.92 -1.23 -4.26zm 3.78 7.41c -0.18 -0.03 -0.36 -0.06 -0.39 -0.06c -0.03 0 0 0.21 0.18 1.02c 0.75 3.18 1.26 6.3 1.5 9.09c 0.06 0.72 0 0.69 0.51 0.42c 0.78 -0.36 1.44 -0.96 1.98 -1.77c 1.08 -1.62 1.2 -3.69 0.3 -5.55c -0.81 -1.62 -2.31 -2.79 -4.08 -3.15z"></path></g><g class="" fill="currentColor" stroke="none" data-name="staff-extra time-signature"><path data-name="4" d="M 51.793 78.93c 0.27 -0.09 0.42 -0.12 0.54 -0.03c 0.09 0.06 0.15 0.21 0.15 0.3c -0.03 0.06 -1.92 2.31 -4.23 5.04c -2.31 2.73 -4.23 4.98 -4.26 5.01c -0.03 0.06 0.12 0.06 2.55 0.06l 2.61 0l 0 -2.37c 0 -2.19 0.03 -2.37 0.06 -2.46c 0.03 -0.06 0.21 -0.18 0.57 -0.42c 1.08 -0.72 1.38 -1.08 1.86 -2.16c 0.12 -0.3 0.24 -0.54 0.27 -0.57c 0.12 -0.12 0.39 -0.06 0.45 0.12c 0.06 0.09 0.06 0.57 0.06 3.96l 0 3.9l 1.08 0c 1.05 0 1.11 0 1.2 0.06c 0.24 0.15 0.24 0.54 0 0.69c -0.09 0.06 -0.15 0.06 -1.2 0.06l -1.08 0l 0 0.33c 0 0.57 0.09 1.11 0.3 1.53c 0.36 0.75 0.93 1.17 1.68 1.26c 0.3 0.03 0.39 0.09 0.39 0.3c 0 0.15 -0.03 0.18 -0.09 0.24c -0.06 0.06 -0.09 0.06 -0.48 0.06c -0.42 0 -0.69 -0.03 -2.1 -0.24c -0.9 -0.15 -1.77 -0.15 -2.67 0c -1.41 0.21 -1.68 0.24 -2.1 0.24c -0.39 0 -0.42 0 -0.48 -0.06c -0.06 -0.06 -0.06 -0.09 -0.06 -0.24c 0 -0.21 0.06 -0.27 0.36 -0.3c 0.75 -0.09 1.32 -0.51 1.68 -1.26c 0.21 -0.42 0.3 -0.96 0.3 -1.53l 0 -0.33l -2.7 0c -2.91 0 -2.85 0 -3.09 -0.15c -0.18 -0.12 -0.3 -0.39 -0.27 -0.54c 0.03 -0.06 0.18 -0.24 0.33 -0.45c 0.75 -0.9 1.59 -2.07 2.13 -3.03c 0.33 -0.54 0.84 -1.62 1.05 -2.16c 0.57 -1.41 0.84 -2.64 0.9 -4.05c 0.03 -0.63 0.06 -0.72 0.24 -0.81l 0.12 -0.06l 0.45 0.12c 0.66 0.18 1.02 0.24 1.47 0.27c 0.6 0.03 1.23 -0.09 2.01 -0.33z"></path><path data-name="4" d="M 51.793 94.43c 0.27 -0.09 0.42 -0.12 0.54 -0.03c 0.09 0.06 0.15 0.21 0.15 0.3c -0.03 0.06 -1.92 2.31 -4.23 5.04c -2.31 2.73 -4.23 4.98 -4.26 5.01c -0.03 0.06 0.12 0.06 2.55 0.06l 2.61 0l 0 -2.37c 0 -2.19 0.03 -2.37 0.06 -2.46c 0.03 -0.06 0.21 -0.18 0.57 -0.42c 1.08 -0.72 1.38 -1.08 1.86 -2.16c 0.12 -0.3 0.24 -0.54 0.27 -0.57c 0.12 -0.12 0.39 -0.06 0.45 0.12c 0.06 0.09 0.06 0.57 0.06 3.96l 0 3.9l 1.08 0c 1.05 0 1.11 0 1.2 0.06c 0.24 0.15 0.24 0.54 0 0.69c -0.09 0.06 -0.15 0.06 -1.2 0.06l -1.08 0l 0 0.33c 0 0.57 0.09 1.11 0.3 1.53c 0.36 0.75 0.93 1.17 1.68 1.26c 0.3 0.03 0.39 0.09 0.39 0.3c 0 0.15 -0.03 0.18 -0.09 0.24c -0.06 0.06 -0.09 0.06 -0.48 0.06c -0.42 0 -0.69 -0.03 -2.1 -0.24c -0.9 -0.15 -1.77 -0.15 -2.67 0c -1.41 0.21 -1.68 0.24 -2.1 0.24c -0.39 0 -0.42 0 -0.48 -0.06c -0.06 -0.06 -0.06 -0.09 -0.06 -0.24c 0 -0.21 0.06 -0.27 0.36 -0.3c 0.75 -0.09 1.32 -0.51 1.68 -1.26c 0.21 -0.42 0.3 -0.96 0.3 -1.53l 0 -0.33l -2.7 0c -2.91 0 -2.85 0 -3.09 -0.15c -0.18 -0.12 -0.3 -0.39 -0.27 -0.54c 0.03 -0.06 0.18 -0.24 0.33 -0.45c 0.75 -0.9 1.59 -2.07 2.13 -3.03c 0.33 -0.54 0.84 -1.62 1.05 -2.16c 0.57 -1.41 0.84 -2.64 0.9 -4.05c 0.03 -0.63 0.06 -0.72 0.24 -0.81l 0.12 -0.06l 0.45 0.12c 0.66 0.18 1.02 0.24 1.47 0.27c 0.6 0.03 1.23 -0.09 2.01 -0.33z"></path></g><g class="" fill="currentColor" stroke="none" data-name="note" selectable="false" data-index="0"><path data-name="C" d="M 71.03800000000001 113.07000000000001c 0.36 -0.03 1.2 0 1.53 0.06c 1.17 0.24 1.89 0.84 2.16 1.83c 0.06 0.18 0.06 0.3 0.06 0.66c 0 0.45 0 0.63 -0.15 1.08c -0.66 2.04 -3.06 3.93 -5.52 4.38c -0.54 0.09 -1.44 0.09 -1.83 0.03c -1.23 -0.27 -1.98 -0.87 -2.25 -1.86c -0.06 -0.18 -0.06 -0.3 -0.06 -0.66c 0 -0.45 0 -0.63 0.15 -1.08c 0.24 -0.78 0.75 -1.53 1.44 -2.22c 1.2 -1.2 2.85 -2.01 4.47 -2.22z" class="abcjs-notehead"></path><path d="M 62.95 116.77 L 76.76 116.77 L 76.76 117.47 L 62.95 117.47 z" stroke="none" fill="currentColor" data-name="ledger" class="abcjs-ledger"></path><path d="M 74.76 78.31L 74.76 116.34L 74.16 116.34L 74.16 78.31z" class="abcjs-stem" data-name="stem"></path></g><g class="" fill="currentColor" stroke="none" data-name="note" selectable="false" data-index="1"><path data-name="D" d="M 95.47875000000002 109.19500000000001c 0.36 -0.03 1.2 0 1.53 0.06c 1.17 0.24 1.89 0.84 2.16 1.83c 0.06 0.18 0.06 0.3 0.06 0.66c 0 0.45 0 0.63 -0.15 1.08c -0.66 2.04 -3.06 3.93 -5.52 4.38c -0.54 0.09 -1.44 0.09 -1.83 0.03c -1.23 -0.27 -1.98 -0.87 -2.25 -1.86c -0.06 -0.18 -0.06 -0.3 -0.06 -0.66c 0 -0.45 0 -0.63 0.15 -1.08c 0.24 -0.78 0.75 -1.53 1.44 -2.22c 1.2 -1.2 2.85 -2.01 4.47 -2.22z" class="abcjs-notehead"></path><path d="M 99.2 75.74L 99.2 112.47L 98.6 112.47L 98.6 75.74z" class="abcjs-stem" data-name="stem"></path></g><g class="" fill="currentColor" stroke="none" data-name="note" selectable="false" data-index="2"><path data-name="E" d="M 119.91950000000003 105.32000000000001c 0.36 -0.03 1.2 0 1.53 0.06c 1.17 0.24 1.89 0.84 2.16 1.83c 0.06 0.18 0.06 0.3 0.06 0.66c 0 0.45 0 0.63 -0.15 1.08c -0.66 2.04 -3.06 3.93 -5.52 4.38c -0.54 0.09 -1.44 0.09 -1.83 0.03c -1.23 -0.27 -1.98 -0.87 -2.25 -1.86c -0.06 -0.18 -0.06 -0.3 -0.06 -0.66c 0 -0.45 0 -0.63 0.15 -1.08c 0.24 -0.78 0.75 -1.53 1.44 -2.22c 1.2 -1.2 2.85 -2.01 4.47 -2.22z" class="abcjs-notehead"></path><path d="M 123.64 73.18L 123.64 108.59L 123.04 108.59L 123.04 73.18z" class="abcjs-stem" data-name="stem"></path></g><g class="" fill="currentColor" stroke="none" data-name="note" selectable="false" data-index="3"><path data-name="F" d="M 144.36025000000004 101.44500000000001c 0.36 -0.03 1.2 0 1.53 0.06c 1.17 0.24 1.89 0.84 2.16 1.83c 0.06 0.18 0.06 0.3 0.06 0.66c 0 0.45 0 0.63 -0.15 1.08c -0.66 2.04 -3.06 3.93 -5.52 4.38c -0.54 0.09 -1.44 0.09 -1.83 0.03c -1.23 -0.27 -1.98 -0.87 -2.25 -1.86c -0.06 -0.18 -0.06 -0.3 -0.06 -0.66c 0 -0.45 0 -0.63 0.15 -1.08c 0.24 -0.78 0.75 -1.53 1.44 -2.22c 1.2 -1.2 2.85 -2.01 4.47 -2.22z" class="abcjs-notehead"></path><path d="M 148.08 70.62L 148.08 104.72L 147.48 104.72L 147.48 70.62z" class="abcjs-stem" data-name="stem"></path></g><g class="" fill="currentColor" stroke="none" data-name="note" selectable="false" data-index="4"><path data-name="G" d="M 168.80100000000004 97.57000000000001c 0.36 -0.03 1.2 0 1.53 0.06c 1.17 0.24 1.89 0.84 2.16 1.83c 0.06 0.18 0.06 0.3 0.06 0.66c 0 0.45 0 0.63 -0.15 1.08c -0.66 2.04 -3.06 3.93 -5.52 4.38c -0.54 0.09 -1.44 0.09 -1.83 0.03c -1.23 -0.27 -1.98 -0.87 -2.25 -1.86c -0.06 -0.18 -0.06 -0.3 -0.06 -0.66c 0 -0.45 0 -0.63 0.15 -1.08c 0.24 -0.78 0.75 -1.53 1.44 -2.22c 1.2 -1.2 2.85 -2.01 4.47 -2.22z" class="abcjs-notehead"></path><path d="M 172.52 62.81L 172.52 100.84L 171.92 100.84L 171.92 62.81z" class="abcjs-stem" data-name="stem"></path></g><g class="" fill="currentColor" stroke="none" data-name="note" selectable="false" data-index="5"><path data-name="A" d="M 193.24175000000005 93.69500000000001c 0.36 -0.03 1.2 0 1.53 0.06c 1.17 0.24 1.89 0.84 2.16 1.83c 0.06 0.18 0.06 0.3 0.06 0.66c 0 0.45 0 0.63 -0.15 1.08c -0.66 2.04 -3.06 3.93 -5.52 4.38c -0.54 0.09 -1.44 0.09 -1.83 0.03c -1.23 -0.27 -1.98 -0.87 -2.25 -1.86c -0.06 -0.18 -0.06 -0.3 -0.06 -0.66c 0 -0.45 0 -0.63 0.15 -1.08c 0.24 -0.78 0.75 -1.53 1.44 -2.22c 1.2 -1.2 2.85 -2.01 4.47 -2.22z" class="abcjs-notehead"></path><path d="M 196.96 60.24L 196.96 96.97L 196.36 96.97L 196.36 60.24z" class="abcjs-stem" data-name="stem"></path></g><g class="" fill="currentColor" stroke="none" data-name="note" selectable="false" data-index="6"><path data-name="B" d="M 217.68250000000006 89.82000000000001c 0.36 -0.03 1.2 0 1.53 0.06c 1.17 0.24 1.89 0.84 2.16 1.83c 0.06 0.18 0.06 0.3 0.06 0.66c 0 0.45 0 0.63 -0.15 1.08c -0.66 2.04 -3.06 3.93 -5.52 4.38c -0.54 0.09 -1.44 0.09 -1.83 0.03c -1.23 -0.27 -1.98 -0.87 -2.25 -1.86c -0.06 -0.18 -0.06 -0.3 -0.06 -0.66c 0 -0.45 0 -0.63 0.15 -1.08c 0.24 -0.78 0.75 -1.53 1.44 -2.22c 1.2 -1.2 2.85 -2.01 4.47 -2.22z" class="abcjs-notehead"></path><path d="M 221.4 57.68L 221.4 93.09L 220.8 93.09L 220.8 57.68z" class="abcjs-stem" data-name="stem"></path></g><g class="" fill="currentColor" stroke="none" data-name="note" selectable="false" data-index="7"><path data-name="c" d="M 242.12325000000007 85.94500000000001c 0.36 -0.03 1.2 0 1.53 0.06c 1.17 0.24 1.89 0.84 2.16 1.83c 0.06 0.18 0.06 0.3 0.06 0.66c 0 0.45 0 0.63 -0.15 1.08c -0.66 2.04 -3.06 3.93 -5.52 4.38c -0.54 0.09 -1.44 0.09 -1.83 0.03c -1.23 -0.27 -1.98 -0.87 -2.25 -1.86c -0.06 -0.18 -0.06 -0.3 -0.06 -0.66c 0 -0.45 0 -0.63 0.15 -1.08c 0.24 -0.78 0.75 -1.53 1.44 -2.22c 1.2 -1.2 2.85 -2.01 4.47 -2.22z" class="abcjs-notehead"></path><path d="M 245.84 55.12L 245.84 89.22L 245.24 89.22L 245.24 55.12z" class="abcjs-stem" data-name="stem"></path></g><g class="" fill="currentColor" stroke="none" data-name="bar"><path d="M 260.47 109.37L 260.47 78.37L 261.07 78.37L 261.07 109.37z" data-name="bar"></path></g><g class="" fill="currentColor" stroke="none" data-name="note" selectable="false" data-index="8"><path data-name="c" d="M 277.564 85.94500000000001c 0.36 -0.03 1.2 0 1.53 0.06c 1.17 0.24 1.89 0.84 2.16 1.83c 0.06 0.18 0.06 0.3 0.06 0.66c 0 0.45 0 0.63 -0.15 1.08c -0.66 2.04 -3.06 3.93 -5.52 4.38c -0.54 0.09 -1.44 0.09 -1.83 0.03c -1.23 -0.27 -1.98 -0.87 -2.25 -1.86c -0.06 -0.18 -0.06 -0.3 -0.06 -0.66c 0 -0.45 0 -0.63 0.15 -1.08c 0.24 -0.78 0.75 -1.53 1.44 -2.22c 1.2 -1.2 2.85 -2.01 4.47 -2.22z" class="abcjs-notehead"></path><path d="M 281.28 55.18L 281.28 89.22L 280.68 89.22L 280.68 55.18z" class="abcjs-stem" data-name="stem"></path></g><g class="" fill="currentColor" stroke="none" data-name="note" selectable="false" data-index="9"><path data-name="B" d="M 302.00475 89.82000000000001c 0.36 -0.03 1.2 0 1.53 0.06c 1.17 0.24 1.89 0.84 2.16 1.83c 0.06 0.18 0.06 0.3 0.06 0.66c 0 0.45 0 0.63 -0.15 1.08c -0.66 2.04 -3.06 3.93 -5.52 4.38c -0.54 0.09 -1.44 0.09 -1.83 0.03c -1.23 -0.27 -1.98 -0.87 -2.25 -1.86c -0.06 -0.18 -0.06 -0.3 -0.06 -0.66c 0 -0.45 0 -0.63 0.15 -1.08c 0.24 -0.78 0.75 -1.53 1.44 -2.22c 1.2 -1.2 2.85 -2.01 4.47 -2.22z" class="abcjs-notehead"></path><path d="M 305.72 57.75L 305.72 93.09L 305.12 93.09L 305.12 57.75z" class="abcjs-stem" data-name="stem"></path></g><g class="" fill="currentColor" stroke="none" data-name="note" selectable="false" data-index="10"><path data-name="A" d="M 326.4455 93.69500000000001c 0.36 -0.03 1.2 0 1.53 0.06c 1.17 0.24 1.89 0.84 2.16 1.83c 0.06 0.18 0.06 0.3 0.06 0.66c 0 0.45 0 0.63 -0.15 1.08c -0.66 2.04 -3.06 3.93 -5.52 4.38c -0.54 0.09 -1.44 0.09 -1.83 0.03c -1.23 -0.27 -1.98 -0.87 -2.25 -1.86c -0.06 -0.18 -0.06 -0.3 -0.06 -0.66c 0 -0.45 0 -0.63 0.15 -1.08c 0.24 -0.78 0.75 -1.53 1.44 -2.22c 1.2 -1.2 2.85 -2.01 4.47 -2.22z" class="abcjs-notehead"></path><path d="M 330.17 60.31L 330.17 96.97L 329.57 96.97L 329.57 60.31z" class="abcjs-stem" data-name="stem"></path></g><g class="" fill="currentColor" stroke="none" data-name="note" selectable="false" data-index="11"><path data-name="G" d="M 350.88624999999996 97.57000000000001c 0.36 -0.03 1.2 0 1.53 0.06c 1.17 0.24 1.89 0.84 2.16 1.83c 0.06 0.18 0.06 0.3 0.06 0.66c 0 0.45 0 0.63 -0.15 1.08c -0.66 2.04 -3.06 3.93 -5.52 4.38c -0.54 0.09 -1.44 0.09 -1.83 0.03c -1.23 -0.27 -1.98 -0.87 -2.25 -1.86c -0.06 -0.18 -0.06 -0.3 -0.06 -0.66c 0 -0.45 0 -0.63 0.15 -1.08c 0.24 -0.78 0.75 -1.53 1.44 -2.22c 1.2 -1.2 2.85 -2.01 4.47 -2.22z" class="abcjs-notehead"></path><path d="M 354.61 62.87L 354.61 100.84L 354.01 100.84L 354.01 62.87z" class="abcjs-stem" data-name="stem"></path></g><g class="" fill="currentColor" stroke="none" data-name="note" selectable="false" data-index="12"><path data-name="F" d="M 375.32699999999994 101.44500000000001c 0.36 -0.03 1.2 0 1.53 0.06c 1.17 0.24 1.89 0.84 2.16 1.83c 0.06 0.18 0.06 0.3 0.06 0.66c 0 0.45 0 0.63 -0.15 1.08c -0.66 2.04 -3.06 3.93 -5.52 4.38c -0.54 0.09 -1.44 0.09 -1.83 0.03c -1.23 -0.27 -1.98 -0.87 -2.25 -1.86c -0.06 -0.18 -0.06 -0.3 -0.06 -0.66c 0 -0.45 0 -0.63 0.15 -1.08c 0.24 -0.78 0.75 -1.53 1.44 -2.22c 1.2 -1.2 2.85 -2.01 4.47 -2.22z" class="abcjs-notehead"></path><path d="M 379.05 70.68L 379.05 104.72L 378.45 104.72L 378.45 70.68z" class="abcjs-stem" data-name="stem"></path></g><g class="" fill="currentColor" stroke="none" data-name="note" selectable="false" data-index="13"><path data-name="E" d="M 399.7677499999999 105.32000000000001c 0.36 -0.03 1.2 0 1.53 0.06c 1.17 0.24 1.89 0.84 2.16 1.83c 0.06 0.18 0.06 0.3 0.06 0.66c 0 0.45 0 0.63 -0.15 1.08c -0.66 2.04 -3.06 3.93 -5.52 4.38c -0.54 0.09 -1.44 0.09 -1.83 0.03c -1.23 -0.27 -1.98 -0.87 -2.25 -1.86c -0.06 -0.18 -0.06 -0.3 -0.06 -0.66c 0 -0.45 0 -0.63 0.15 -1.08c 0.24 -0.78 0.75 -1.53 1.44 -2.22c 1.2 -1.2 2.85 -2.01 4.47 -2.22z" class="abcjs-notehead"></path><path d="M 403.49 73.25L 403.49 108.59L 402.89 108.59L 402.89 73.25z" class="abcjs-stem" data-name="stem"></path></g><g class="" fill="currentColor" stroke="none" data-name="note" selectable="false" data-index="14"><path data-name="D" d="M 424.2084999999999 109.19500000000001c 0.36 -0.03 1.2 0 1.53 0.06c 1.17 0.24 1.89 0.84 2.16 1.83c 0.06 0.18 0.06 0.3 0.06 0.66c 0 0.45 0 0.63 -0.15 1.08c -0.66 2.04 -3.06 3.93 -5.52 4.38c -0.54 0.09 -1.44 0.09 -1.83 0.03c -1.23 -0.27 -1.98 -0.87 -2.25 -1.86c -0.06 -0.18 -0.06 -0.3 -0.06 -0.66c 0 -0.45 0 -0.63 0.15 -1.08c 0.24 -0.78 0.75 -1.53 1.44 -2.22c 1.2 -1.2 2.85 -2.01 4.47 -2.22z" class="abcjs-notehead"></path><path d="M 427.93 75.81L 427.93 112.47L 427.33 112.47L 427.33 75.81z" class="abcjs-stem" data-name="stem"></path></g><g class="" fill="currentColor" stroke="none" data-name="note" selectable="false" data-index="15"><path data-name="C" d="M 448.6492499999999 113.07000000000001c 0.36 -0.03 1.2 0 1.53 0.06c 1.17 0.24 1.89 0.84 2.16 1.83c 0.06 0.18 0.06 0.3 0.06 0.66c 0 0.45 0 0.63 -0.15 1.08c -0.66 2.04 -3.06 3.93 -5.52 4.38c -0.54 0.09 -1.44 0.09 -1.83 0.03c -1.23 -0.27 -1.98 -0.87 -2.25 -1.86c -0.06 -0.18 -0.06 -0.3 -0.06 -0.66c 0 -0.45 0 -0.63 0.15 -1.08c 0.24 -0.78 0.75 -1.53 1.44 -2.22c 1.2 -1.2 2.85 -2.01 4.47 -2.22z" class="abcjs-notehead"></path><path d="M 440.56 116.77 L 454.37 116.77 L 454.37 117.47 L 440.56 117.47 z" stroke="none" fill="currentColor" data-name="ledger" class="abcjs-ledger"></path><path d="M 452.37 78.37L 452.37 116.34L 451.77 116.34L 451.77 78.37z" class="abcjs-stem" data-name="stem"></path></g><g class="" fill="currentColor" stroke="none" data-name="bar"><path d="M 467 109.37L 467 78.37L 467.6 78.37L 467.6 109.37z" data-name="bar"></path></g><path d="M74.16 78.37 L148.08 70.62L148.08 74.5 L74.16 82.25z" stroke="none" fill="currentColor" class=""></path><path d="M171.92 62.87 L245.84 55.12L245.84 58.99 L171.92 66.75z" stroke="none" fill="currentColor" class=""></path><path d="M280.68 55.12 L354.61 62.87L354.61 66.75 L280.68 58.99z" stroke="none" fill="currentColor" class=""></path><path d="M378.45 70.62 L452.37 78.37L452.37 82.25 L378.45 74.5z" stroke="none" fill="currentColor" class=""></path><g><path d="M 8 157.02 L 468 157.02 L 468 157.72 L 8 157.72 z" stroke="none" fill="currentColor" class="abcjs-top-line"></path><path d="M 8 164.77 L 468 164.77 L 468 165.47 L 8 165.47 z" stroke="none" fill="currentColor"></path><path d="M 8 172.52 L 468 172.52 L 468 173.22 L 8 173.22 z" stroke="none" fill="currentColor"></path><path d="M 8 180.27 L 468 180.27 L 468 180.97 L 8 180.97 z" stroke="none" fill="currentColor"></path><path d="M 8 188.02 L 468 188.02 L 468 188.72 L 8 188.72 z" stroke="none" fill="currentColor"></path></g><g class="" fill="currentColor" stroke="none" data-name="staff-extra clef"><path data-name="clefs.F" d="M 19.3 157.32c 0.36 -0.03 1.65 0 2.13 0.03c 3.6 0.42 6.03 2.1 6.93 4.86c 0.27 0.84 0.36 1.5 0.36 2.58c 0 0.9 -0.03 1.35 -0.18 2.16c -0.78 3.78 -3.54 7.08 -8.37 9.96c -1.74 1.05 -3.87 2.13 -6.18 3.12c -0.39 0.18 -0.75 0.33 -0.81 0.36c -0.06 0.03 -0.15 0.06 -0.18 0.06c -0.15 0 -0.33 -0.18 -0.33 -0.33c 0 -0.15 0.06 -0.21 0.51 -0.48c 3 -1.77 5.13 -3.21 6.84 -4.74c 0.51 -0.45 1.59 -1.5 1.95 -1.95c 1.89 -2.19 2.88 -4.32 3.15 -6.78c 0.06 -0.42 0.06 -1.77 0 -2.19c -0.24 -2.01 -0.93 -3.63 -2.04 -4.71c -0.63 -0.63 -1.29 -1.02 -2.07 -1.2c -1.62 -0.39 -3.36 0.15 -4.56 1.44c -0.54 0.6 -1.05 1.47 -1.32 2.22l -0.09 0.21l 0.24 -0.12c 0.39 -0.21 0.63 -0.24 1.11 -0.24c 0.3 0 0.45 0 0.66 0.06c 1.92 0.48 2.85 2.55 1.95 4.38c -0.45 0.99 -1.41 1.62 -2.46 1.71c -1.47 0.09 -2.91 -0.87 -3.39 -2.25c -0.18 -0.57 -0.21 -1.32 -0.03 -2.28c 0.39 -2.25 1.83 -4.2 3.81 -5.19c 0.69 -0.36 1.59 -0.6 2.37 -0.69zm 11.58 2.52c 0.84 -0.21 1.71 0.3 1.89 1.14c 0.3 1.17 -0.72 2.19 -1.89 1.89c -0.99 -0.21 -1.5 -1.32 -1.02 -2.25c 0.18 -0.39 0.6 -0.69 1.02 -0.78zm 0 7.5c 0.84 -0.21 1.71 0.3 1.89 1.14c 0.21 0.87 -0.3 1.71 -1.14 1.89c -0.87 0.21 -1.71 -0.3 -1.89 -1.14c -0.21 -0.84 0.3 -1.71 1.14 -1.89z"></path></g><g class="" fill="currentColor" stroke="none" data-name="staff-extra time-signature"><path data-name="4" d="M 51.793 157.93c 0.27 -0.09 0.42 -0.12 0.54 -0.03c 0.09 0.06 0.15 0.21 0.15 0.3c -0.03 0.06 -1.92 2.31 -4.23 5.04c -2.31 2.73 -4.23 4.98 -4.26 5.01c -0.03 0.06 0.12 0.06 2.55 0.06l 2.61 0l 0 -2.37c 0 -2.19 0.03 -2.37 0.06 -2.46c 0.03 -0.06 0.21 -0.18 0.57 -0.42c 1.08 -0.72 1.38 -1.08 1.86 -2.16c 0.12 -0.3 0.24 -0.54 0.27 -0.57c 0.12 -0.12 0.39 -0.06 0.45 0.12c 0.06 0.09 0.06 0.57 0.06 3.96l 0 3.9l 1.08 0c 1.05 0 1.11 0 1.2 0.06c 0.24 0.15 0.24 0.54 0 0.69c -0.09 0.06 -0.15 0.06 -1.2 0.06l -1.08 0l 0 0.33c 0 0.57 0.09 1.11 0.3 1.53c 0.36 0.75 0.93 1.17 1.68 1.26c 0.3 0.03 0.39 0.09 0.39 0.3c 0 0.15 -0.03 0.18 -0.09 0.24c -0.06 0.06 -0.09 0.06 -0.48 0.06c -0.42 0 -0.69 -0.03 -2.1 -0.24c -0.9 -0.15 -1.77 -0.15 -2.67 0c -1.41 0.21 -1.68 0.24 -2.1 0.24c -0.39 0 -0.42 0 -0.48 -0.06c -0.06 -0.06 -0.06 -0.09 -0.06 -0.24c 0 -0.21 0.06 -0.27 0.36 -0.3c 0.75 -0.09 1.32 -0.51 1.68 -1.26c 0.21 -0.42 0.3 -0.96 0.3 -1.53l 0 -0.33l -2.7 0c -2.91 0 -2.85 0 -3.09 -0.15c -0.18 -0.12 -0.3 -0.39 -0.27 -0.54c 0.03 -0.06 0.18 -0.24 0.33 -0.45c 0.75 -0.9 1.59 -2.07 2.13 -3.03c 0.33 -0.54 0.84 -1.62 1.05 -2.16c 0.57 -1.41 0.84 -2.64 0.9 -4.05c 0.03 -0.63 0.06 -0.72 0.24 -0.81l 0.12 -0.06l 0.45 0.12c 0.66 0.18 1.02 0.24 1.47 0.27c 0.6 0.03 1.23 -0.09 2.01 -0.33z"></path><path data-name="4" d="M 51.793 173.43c 0.27 -0.09 0.42 -0.12 0.54 -0.03c 0.09 0.06 0.15 0.21 0.15 0.3c -0.03 0.06 -1.92 2.31 -4.23 5.04c -2.31 2.73 -4.23 4.98 -4.26 5.01c -0.03 0.06 0.12 0.06 2.55 0.06l 2.61 0l 0 -2.37c 0 -2.19 0.03 -2.37 0.06 -2.46c 0.03 -0.06 0.21 -0.18 0.57 -0.42c 1.08 -0.72 1.38 -1.08 1.86 -2.16c 0.12 -0.3 0.24 -0.54 0.27 -0.57c 0.12 -0.12 0.39 -0.06 0.45 0.12c 0.06 0.09 0.06 0.57 0.06 3.96l 0 3.9l 1.08 0c 1.05 0 1.11 0 1.2 0.06c 0.24 0.15 0.24 0.54 0 0.69c -0.09 0.06 -0.15 0.06 -1.2 0.06l -1.08 0l 0 0.33c 0 0.57 0.09 1.11 0.3 1.53c 0.36 0.75 0.93 1.17 1.68 1.26c 0.3 0.03 0.39 0.09 0.39 0.3c 0 0.15 -0.03 0.18 -0.09 0.24c -0.06 0.06 -0.09 0.06 -0.48 0.06c -0.42 0 -0.69 -0.03 -2.1 -0.24c -0.9 -0.15 -1.77 -0.15 -2.67 0c -1.41 0.21 -1.68 0.24 -2.1 0.24c -0.39 0 -0.42 0 -0.48 -0.06c -0.06 -0.06 -0.06 -0.09 -0.06 -0.24c 0 -0.21 0.06 -0.27 0.36 -0.3c 0.75 -0.09 1.32 -0.51 1.68 -1.26c 0.21 -0.42 0.3 -0.96 0.3 -1.53l 0 -0.33l -2.7 0c -2.91 0 -2.85 0 -3.09 -0.15c -0.18 -0.12 -0.3 -0.39 -0.27 -0.54c 0.03 -0.06 0.18 -0.24 0.33 -0.45c 0.75 -0.9 1.59 -2.07 2.13 -3.03c 0.33 -0.54 0.84 -1.62 1.05 -2.16c 0.57 -1.41 0.84 -2.64 0.9 -4.05c 0.03 -0.63 0.06 -0.72 0.24 -0.81l 0.12 -0.06l 0.45 0.12c 0.66 0.18 1.02 0.24 1.47 0.27c 0.6 0.03 1.23 -0.09 2.01 -0.33z"></path></g><g class="" fill="currentColor" stroke="none" data-name="note" selectable="false" data-index="16"><path data-name="C," d="M 71.03800000000001 172.695c 0.36 -0.03 1.2 0 1.53 0.06c 1.17 0.24 1.89 0.84 2.16 1.83c 0.06 0.18 0.06 0.3 0.06 0.66c 0 0.45 0 0.63 -0.15 1.08c -0.66 2.04 -3.06 3.93 -5.52 4.38c -0.54 0.09 -1.44 0.09 -1.83 0.03c -1.23 -0.27 -1.98 -0.87 -2.25 -1.86c -0.06 -0.18 -0.06 -0.3 -0.06 -0.66c 0 -0.45 0 -0.63 0.15 -1.08c 0.24 -0.78 0.75 -1.53 1.44 -2.22c 1.2 -1.2 2.85 -2.01 4.47 -2.22z" class="abcjs-notehead"></path><path d="M 64.95 205.81L 64.95 177.52L 65.55 177.52L 65.55 205.81z" class="abcjs-stem" data-name="stem"></path></g><g class="" fill="currentColor" stroke="none" data-name="note" selectable="false" data-index="17"><path data-name="D," d="M 95.47875000000002 168.82c 0.36 -0.03 1.2 0 1.53 0.06c 1.17 0.24 1.89 0.84 2.16 1.83c 0.06 0.18 0.06 0.3 0.06 0.66c 0 0.45 0 0.63 -0.15 1.08c -0.66 2.04 -3.06 3.93 -5.52 4.38c -0.54 0.09 -1.44 0.09 -1.83 0.03c -1.23 -0.27 -1.98 -0.87 -2.25 -1.86c -0.06 -0.18 -0.06 -0.3 -0.06 -0.66c 0 -0.45 0 -0.63 0.15 -1.08c 0.24 -0.78 0.75 -1.53 1.44 -2.22c 1.2 -1.2 2.85 -2.01 4.47 -2.22z" class="abcjs-notehead"></path><path d="M 89.39 203.25L 89.39 173.65L 89.99 173.65L 89.99 203.25z" class="abcjs-stem" data-name="stem"></path></g><g class="" fill="currentColor" stroke="none" data-name="note" selectable="false" data-index="18"><path data-name="E," d="M 119.91950000000003 164.945c 0.36 -0.03 1.2 0 1.53 0.06c 1.17 0.24 1.89 0.84 2.16 1.83c 0.06 0.18 0.06 0.3 0.06 0.66c 0 0.45 0 0.63 -0.15 1.08c -0.66 2.04 -3.06 3.93 -5.52 4.38c -0.54 0.09 -1.44 0.09 -1.83 0.03c -1.23 -0.27 -1.98 -0.87 -2.25 -1.86c -0.06 -0.18 -0.06 -0.3 -0.06 -0.66c 0 -0.45 0 -0.63 0.15 -1.08c 0.24 -0.78 0.75 -1.53 1.44 -2.22c 1.2 -1.2 2.85 -2.01 4.47 -2.22z" class="abcjs-notehead"></path><path d="M 113.83 200.68L 113.83 169.77L 114.43 169.77L 114.43 200.68z" class="abcjs-stem" data-name="stem"></path></g><g class="" fill="currentColor" stroke="none" data-name="note" selectable="false" data-index="19"><path data-name="F," d="M 144.36025000000004 161.07c 0.36 -0.03 1.2 0 1.53 0.06c 1.17 0.24 1.89 0.84 2.16 1.83c 0.06 0.18 0.06 0.3 0.06 0.66c 0 0.45 0 0.63 -0.15 1.08c -0.66 2.04 -3.06 3.93 -5.52 4.38c -0.54 0.09 -1.44 0.09 -1.83 0.03c -1.23 -0.27 -1.98 -0.87 -2.25 -1.86c -0.06 -0.18 -0.06 -0.3 -0.06 -0.66c 0 -0.45 0 -0.63 0.15 -1.08c 0.24 -0.78 0.75 -1.53 1.44 -2.22c 1.2 -1.2 2.85 -2.01 4.47 -2.22z" class="abcjs-notehead"></path><path d="M 138.27 198.12L 138.27 165.9L 138.87 165.9L 138.87 198.12z" class="abcjs-stem" data-name="stem"></path></g><g class="" fill="currentColor" stroke="none" data-name="note" selectable="false" data-index="20"><path data-name="G," d="M 168.80100000000004 157.195c 0.36 -0.03 1.2 0 1.53 0.06c 1.17 0.24 1.89 0.84 2.16 1.83c 0.06 0.18 0.06 0.3 0.06 0.66c 0 0.45 0 0.63 -0.15 1.08c -0.66 2.04 -3.06 3.93 -5.52 4.38c -0.54 0.09 -1.44 0.09 -1.83 0.03c -1.23 -0.27 -1.98 -0.87 -2.25 -1.86c -0.06 -0.18 -0.06 -0.3 -0.06 -0.66c 0 -0.45 0 -0.63 0.15 -1.08c 0.24 -0.78 0.75 -1.53 1.44 -2.22c 1.2 -1.2 2.85 -2.01 4.47 -2.22z" class="abcjs-notehead"></path><path d="M 162.71 190.31L 162.71 162.02L 163.31 162.02L 163.31 190.31z" class="abcjs-stem" data-name="stem"></path></g><g class="" fill="currentColor" stroke="none" data-name="note" selectable="false" data-index="21"><path data-name="A," d="M 193.24175000000005 153.32c 0.36 -0.03 1.2 0 1.53 0.06c 1.17 0.24 1.89 0.84 2.16 1.83c 0.06 0.18 0.06 0.3 0.06 0.66c 0 0.45 0 0.63 -0.15 1.08c -0.66 2.04 -3.06 3.93 -5.52 4.38c -0.54 0.09 -1.44 0.09 -1.83 0.03c -1.23 -0.27 -1.98 -0.87 -2.25 -1.86c -0.06 -0.18 -0.06 -0.3 -0.06 -0.66c 0 -0.45 0 -0.63 0.15 -1.08c 0.24 -0.78 0.75 -1.53 1.44 -2.22c 1.2 -1.2 2.85 -2.01 4.47 -2.22z" class="abcjs-notehead"></path><path d="M 187.15 187.75L 187.15 158.15L 187.75 158.15L 187.75 187.75z" class="abcjs-stem" data-name="stem"></path></g><g class="" fill="currentColor" stroke="none" data-name="note" selectable="false" data-index="22"><path data-name="B," d="M 217.68250000000006 149.445c 0.36 -0.03 1.2 0 1.53 0.06c 1.17 0.24 1.89 0.84 2.16 1.83c 0.06 0.18 0.06 0.3 0.06 0.66c 0 0.45 0 0.63 -0.15 1.08c -0.66 2.04 -3.06 3.93 -5.52 4.38c -0.54 0.09 -1.44 0.09 -1.83 0.03c -1.23 -0.27 -1.98 -0.87 -2.25 -1.86c -0.06 -0.18 -0.06 -0.3 -0.06 -0.66c 0 -0.45 0 -0.63 0.15 -1.08c 0.24 -0.78 0.75 -1.53 1.44 -2.22c 1.2 -1.2 2.85 -2.01 4.47 -2.22z" class="abcjs-notehead"></path><path d="M 211.59 185.18L 211.59 154.27L 212.19 154.27L 212.19 185.18z" class="abcjs-stem" data-name="stem"></path></g><g class="" fill="currentColor" stroke="none" data-name="note" selectable="false" data-index="23"><path data-name="C" d="M 242.12325000000007 145.57c 0.36 -0.03 1.2 0 1.53 0.06c 1.17 0.24 1.89 0.84 2.16 1.83c 0.06 0.18 0.06 0.3 0.06 0.66c 0 0.45 0 0.63 -0.15 1.08c -0.66 2.04 -3.06 3.93 -5.52 4.38c -0.54 0.09 -1.44 0.09 -1.83 0.03c -1.23 -0.27 -1.98 -0.87 -2.25 -1.86c -0.06 -0.18 -0.06 -0.3 -0.06 -0.66c 0 -0.45 0 -0.63 0.15 -1.08c 0.24 -0.78 0.75 -1.53 1.44 -2.22c 1.2 -1.2 2.85 -2.01 4.47 -2.22z" class="abcjs-notehead"></path><path d="M 234.03 149.27 L 247.84 149.27 L 247.84 149.97 L 234.03 149.97 z" stroke="none" fill="currentColor" data-name="ledger" class="abcjs-ledger"></path><path d="M 236.03 182.62L 236.03 150.4L 236.63 150.4L 236.63 182.62z" class="abcjs-stem" data-name="stem"></path></g><g class="" fill="currentColor" stroke="none" data-name="bar"><path d="M 260.47 188.37L 260.47 157.37L 261.07 157.37L 261.07 188.37z" data-name="bar"></path></g><g class="" fill="currentColor" stroke="none" data-name="note" selectable="false" data-index="24"><path data-name="C" d="M 277.564 145.57c 0.36 -0.03 1.2 0 1.53 0.06c 1.17 0.24 1.89 0.84 2.16 1.83c 0.06 0.18 0.06 0.3 0.06 0.66c 0 0.45 0 0.63 -0.15 1.08c -0.66 2.04 -3.06 3.93 -5.52 4.38c -0.54 0.09 -1.44 0.09 -1.83 0.03c -1.23 -0.27 -1.98 -0.87 -2.25 -1.86c -0.06 -0.18 -0.06 -0.3 -0.06 -0.66c 0 -0.45 0 -0.63 0.15 -1.08c 0.24 -0.78 0.75 -1.53 1.44 -2.22c 1.2 -1.2 2.85 -2.01 4.47 -2.22z" class="abcjs-notehead"></path><path d="M 269.47 149.27 L 283.28 149.27 L 283.28 149.97 L 269.47 149.97 z" stroke="none" fill="currentColor" data-name="ledger" class="abcjs-ledger"></path><path d="M 271.47 182.56L 271.47 150.4L 272.07 150.4L 272.07 182.56z" class="abcjs-stem" data-name="stem"></path></g><g class="" fill="currentColor" stroke="none" data-name="note" selectable="false" data-index="25"><path data-name="B," d="M 302.00475 149.445c 0.36 -0.03 1.2 0 1.53 0.06c 1.17 0.24 1.89 0.84 2.16 1.83c 0.06 0.18 0.06 0.3 0.06 0.66c 0 0.45 0 0.63 -0.15 1.08c -0.66 2.04 -3.06 3.93 -5.52 4.38c -0.54 0.09 -1.44 0.09 -1.83 0.03c -1.23 -0.27 -1.98 -0.87 -2.25 -1.86c -0.06 -0.18 -0.06 -0.3 -0.06 -0.66c 0 -0.45 0 -0.63 0.15 -1.08c 0.24 -0.78 0.75 -1.53 1.44 -2.22c 1.2 -1.2 2.85 -2.01 4.47 -2.22z" class="abcjs-notehead"></path><path d="M 295.91 185.12L 295.91 154.27L 296.51 154.27L 296.51 185.12z" class="abcjs-stem" data-name="stem"></path></g><g class="" fill="currentColor" stroke="none" data-name="note" selectable="false" data-index="26"><path data-name="A," d="M 326.4455 153.32c 0.36 -0.03 1.2 0 1.53 0.06c 1.17 0.24 1.89 0.84 2.16 1.83c 0.06 0.18 0.06 0.3 0.06 0.66c 0 0.45 0 0.63 -0.15 1.08c -0.66 2.04 -3.06 3.93 -5.52 4.38c -0.54 0.09 -1.44 0.09 -1.83 0.03c -1.23 -0.27 -1.98 -0.87 -2.25 -1.86c -0.06 -0.18 -0.06 -0.3 -0.06 -0.66c 0 -0.45 0 -0.63 0.15 -1.08c 0.24 -0.78 0.75 -1.53 1.44 -2.22c 1.2 -1.2 2.85 -2.01 4.47 -2.22z" class="abcjs-notehead"></path><path d="M 320.36 187.68L 320.36 158.15L 320.96 158.15L 320.96 187.68z" class="abcjs-stem" data-name="stem"></path></g><g class="" fill="currentColor" stroke="none" data-name="note" selectable="false" data-index="27"><path data-name="G," d="M 350.88624999999996 157.195c 0.36 -0.03 1.2 0 1.53 0.06c 1.17 0.24 1.89 0.84 2.16 1.83c 0.06 0.18 0.06 0.3 0.06 0.66c 0 0.45 0 0.63 -0.15 1.08c -0.66 2.04 -3.06 3.93 -5.52 4.38c -0.54 0.09 -1.44 0.09 -1.83 0.03c -1.23 -0.27 -1.98 -0.87 -2.25 -1.86c -0.06 -0.18 -0.06 -0.3 -0.06 -0.66c 0 -0.45 0 -0.63 0.15 -1.08c 0.24 -0.78 0.75 -1.53 1.44 -2.22c 1.2 -1.2 2.85 -2.01 4.47 -2.22z" class="abcjs-notehead"></path><path d="M 344.8 190.24L 344.8 162.02L 345.4 162.02L 345.4 190.24z" class="abcjs-stem" data-name="stem"></path></g><g class="" fill="currentColor" stroke="none" data-name="note" selectable="false" data-index="28"><path data-name="F," d="M 375.32699999999994 161.07c 0.36 -0.03 1.2 0 1.53 0.06c 1.17 0.24 1.89 0.84 2.16 1.83c 0.06 0.18 0.06 0.3 0.06 0.66c 0 0.45 0 0.63 -0.15 1.08c -0.66 2.04 -3.06 3.93 -5.52 4.38c -0.54 0.09 -1.44 0.09 -1.83 0.03c -1.23 -0.27 -1.98 -0.87 -2.25 -1.86c -0.06 -0.18 -0.06 -0.3 -0.06 -0.66c 0 -0.45 0 -0.63 0.15 -1.08c 0.24 -0.78 0.75 -1.53 1.44 -2.22c 1.2 -1.2 2.85 -2.01 4.47 -2.22z" class="abcjs-notehead"></path><path d="M 369.24 198.06L 369.24 165.9L 369.84 165.9L 369.84 198.06z" class="abcjs-stem" data-name="stem"></path></g><g class="" fill="currentColor" stroke="none" data-name="note" selectable="false" data-index="29"><path data-name="E," d="M 399.7677499999999 164.945c 0.36 -0.03 1.2 0 1.53 0.06c 1.17 0.24 1.89 0.84 2.16 1.83c 0.06 0.18 0.06 0.3 0.06 0.66c 0 0.45 0 0.63 -0.15 1.08c -0.66 2.04 -3.06 3.93 -5.52 4.38c -0.54 0.09 -1.44 0.09 -1.83 0.03c -1.23 -0.27 -1.98 -0.87 -2.25 -1.86c -0.06 -0.18 -0.06 -0.3 -0.06 -0.66c 0 -0.45 0 -0.63 0.15 -1.08c 0.24 -0.78 0.75 -1.53 1.44 -2.22c 1.2 -1.2 2.85 -2.01 4.47 -2.22z" class="abcjs-notehead"></path><path d="M 393.68 200.62L 393.68 169.77L 394.28 169.77L 394.28 200.62z" class="abcjs-stem" data-name="stem"></path></g><g class="" fill="currentColor" stroke="none" data-name="note" selectable="false" data-index="30"><path data-name="D," d="M 424.2084999999999 168.82c 0.36 -0.03 1.2 0 1.53 0.06c 1.17 0.24 1.89 0.84 2.16 1.83c 0.06 0.18 0.06 0.3 0.06 0.66c 0 0.45 0 0.63 -0.15 1.08c -0.66 2.04 -3.06 3.93 -5.52 4.38c -0.54 0.09 -1.44 0.09 -1.83 0.03c -1.23 -0.27 -1.98 -0.87 -2.25 -1.86c -0.06 -0.18 -0.06 -0.3 -0.06 -0.66c 0 -0.45 0 -0.63 0.15 -1.08c 0.24 -0.78 0.75 -1.53 1.44 -2.22c 1.2 -1.2 2.85 -2.01 4.47 -2.22z" class="abcjs-notehead"></path><path d="M 418.12 203.18L 418.12 173.65L 418.72 173.65L 418.72 203.18z" class="abcjs-stem" data-name="stem"></path></g><g class="" fill="currentColor" stroke="none" data-name="note" selectable="false" data-index="31"><path data-name="C," d="M 448.6492499999999 172.695c 0.36 -0.03 1.2 0 1.53 0.06c 1.17 0.24 1.89 0.84 2.16 1.83c 0.06 0.18 0.06 0.3 0.06 0.66c 0 0.45 0 0.63 -0.15 1.08c -0.66 2.04 -3.06 3.93 -5.52 4.38c -0.54 0.09 -1.44 0.09 -1.83 0.03c -1.23 -0.27 -1.98 -0.87 -2.25 -1.86c -0.06 -0.18 -0.06 -0.3 -0.06 -0.66c 0 -0.45 0 -0.63 0.15 -1.08c 0.24 -0.78 0.75 -1.53 1.44 -2.22c 1.2 -1.2 2.85 -2.01 4.47 -2.22z" class="abcjs-notehead"></path><path d="M 442.56 205.74L 442.56 177.52L 443.16 177.52L 443.16 205.74z" class="abcjs-stem" data-name="stem"></path></g><g class="" fill="currentColor" stroke="none" data-name="bar"><path d="M 467 188.37L 467 109.37L 467.6 109.37L 467.6 188.37z" data-name="bar"></path></g><path d="M64.95 207.75 L138.87 200L138.87 196.13 L64.95 203.88z" stroke="none" fill="currentColor" class=""></path><path d="M162.71 192.25 L236.63 184.5L236.63 180.63 L162.71 188.38z" stroke="none" fill="currentColor" class=""></path><path d="M271.47 184.5 L345.4 192.25L345.4 188.38 L271.47 180.63z" stroke="none" fill="currentColor" class=""></path><path d="M369.24 200 L443.16 207.75L443.16 203.88 L369.24 196.13z" stroke="none" fill="currentColor" class=""></path><path d="M 8 188.37L 8 78.37L 8.6 78.37L 8.6 188.37z" stroke="none" fill="currentColor"></path></g></svg>
