<svg xmlns:xlink="http://www.w3.org/1999/xlink" role="img" fill="currentColor" stroke="currentColor" aria-label="Sheet Music for &quot;C Major Scale - one octave, both hands&quot;" viewBox="0 0 696 213.8075" preserveAspectRatio="xMinYMin meet" style="display: inline-block; position: absolute; top: 0px; left: 0px;"><style>.abcjs-dragging-in-progress text, .abcjs-dragging-in-progress tspan {-webkit-touch-callout: none; -webkit-user-select: none; -khtml-user-select: none; -moz-user-select: none; -ms-user-select: none; user-select: none;}</style><title>Sheet Music for "C Major Scale - one octave, both hands"</title><g><text stroke="none" font-size="27" font-style="normal" font-family="Times New Roman" font-weight="normal" text-decoration="none" class="" text-anchor="middle" x="348" y="42.56" data-name="title"><tspan x="348">C Major Scale - one octave, both hands</tspan></text></g><g><g><path d="M 8 78.02 L 688 78.02 L 688 78.72 L 8 78.72 z" stroke="none" fill="currentColor" class="abcjs-top-line"></path><path d="M 8 85.77 L 688 85.77 L 688 86.47 L 8 86.47 z" stroke="none" fill="currentColor"></path><path d="M 8 93.52 L 688 93.52 L 688 94.22 L 8 94.22 z" stroke="none" fill="currentColor"></path><path d="M 8 101.27 L 688 101.27 L 688 101.97 L 8 101.97 z" stroke="none" fill="currentColor"></path><path d="M 8 109.02 L 688 109.02 L 688 109.72 L 8 109.72 z" stroke="none" fill="currentColor"></path></g><g class="" fill="currentColor" stroke="none" data-name="staff-extra clef"><path data-name="clefs.G" d="M 22.689999999999998 64.21000000000001c 0.09 -0.09 0.24 -0.06 0.36 0c 0.12 0.09 0.57 0.6 0.96 1.11c 1.77 2.34 3.21 5.85 3.57 8.73c 0.21 1.56 0.03 3.27 -0.45 4.86c -0.69 2.31 -1.92 4.47 -4.23 7.44c -0.3 0.39 -0.57 0.72 -0.6 0.75c -0.03 0.06 0 0.15 0.18 0.78c 0.54 1.68 1.38 4.44 1.68 5.49l 0.09 0.42l 0.39 0c 1.47 0.09 2.76 0.51 3.96 1.29c 1.83 1.23 3.06 3.21 3.39 5.52c 0.09 0.45 0.12 1.29 0.06 1.74c -0.09 1.02 -0.33 1.83 -0.75 2.73c -0.84 1.71 -2.28 3.06 -4.02 3.72l -0.33 0.12l 0.03 1.26c 0 1.74 -0.06 3.63 -0.21 4.62c -0.45 3.06 -2.19 5.49 -4.47 6.21c -0.57 0.18 -0.9 0.21 -1.59 0.21c -0.69 0 -1.02 -0.03 -1.65 -0.21c -1.14 -0.27 -2.13 -0.84 -2.94 -1.65c -0.99 -0.99 -1.56 -2.16 -1.71 -3.54c -0.09 -0.81 0.06 -1.53 0.45 -2.13c 0.63 -0.99 1.83 -1.56 3 -1.53c 1.5 0.09 2.64 1.32 2.73 2.94c 0.06 1.47 -0.93 2.7 -2.37 2.97c -0.45 0.06 -0.84 0.03 -1.29 -0.09l -0.21 -0.09l 0.09 0.12c 0.39 0.54 0.78 0.93 1.32 1.26c 1.35 0.87 3.06 1.02 4.35 0.36c 1.44 -0.72 2.52 -2.28 2.97 -4.35c 0.15 -0.66 0.24 -1.5 0.3 -3.03c 0.03 -0.84 0.03 -2.94 0 -3c -0.03 0 -0.18 0 -0.36 0.03c -0.66 0.12 -0.99 0.12 -1.83 0.12c -1.05 0 -1.71 -0.06 -2.61 -0.3c -4.02 -0.99 -7.11 -4.35 -7.8 -8.46c -0.12 -0.66 -0.12 -0.99 -0.12 -1.83c 0 -0.84 0 -1.14 0.15 -1.92c 0.36 -2.28 1.41 -4.62 3.3 -7.29l 2.79 -3.6c 0.54 -0.66 0.96 -1.2 0.96 -1.23c 0 -0.03 -0.09 -0.33 -0.18 -0.69c -0.96 -3.21 -1.41 -5.28 -1.59 -7.68c -0.12 -1.38 -0.15 -3.09 -0.06 -3.96c 0.33 -2.67 1.38 -5.07 3.12 -7.08c 0.36 -0.42 0.99 -1.05 1.17 -1.14zm 2.01 4.71c -0.15 -0.3 -0.3 -0.54 -0.3 -0.54c -0.03 0 -0.18 0.09 -0.3 0.21c -2.4 1.74 -3.87 4.2 -4.26 7.11c -0.06 0.54 -0.06 1.41 -0.03 1.89c 0.09 1.29 0.48 3.12 1.08 5.22c 0.15 0.42 0.24 0.78 0.24 0.81c 0 0.03 0.84 -1.11 1.23 -1.68c 1.89 -2.73 2.88 -5.07 3.15 -7.53c 0.09 -0.57 0.12 -1.74 0.06 -2.37c -0.09 -1.23 -0.27 -1.92 -0.87 -3.12zm -2.94 20.7c -0.21 -0.72 -0.39 -1.32 -0.42 -1.32c 0 0 -1.2 1.47 -1.86 2.37c -2.79 3.63 -4.02 6.3 -4.35 9.3c -0.03 0.21 -0.03 0.69 -0.03 1.08c 0 0.69 0 0.75 0.06 1.11c 0.12 0.54 0.27 0.99 0.51 1.47c 0.69 1.38 1.83 2.55 3.42 3.42c 0.96 0.54 2.07 0.9 3.21 1.08c 0.78 0.12 2.04 0.12 2.94 -0.03c 0.51 -0.06 0.45 -0.03 0.42 -0.3c -0.24 -3.33 -0.72 -6.33 -1.62 -10.08c -0.09 -0.39 -0.18 -0.75 -0.18 -0.78c -0.03 -0.03 -0.42 0 -0.81 0.09c -0.9 0.18 -1.65 0.57 -2.22 1.14c -0.72 0.72 -1.08 1.65 -1.05 2.64c 0.06 0.96 0.48 1.83 1.23 2.58c 0.36 0.36 0.72 0.63 1.17 0.9c 0.33 0.18 0.36 0.21 0.42 0.33c 0.18 0.42 -0.18 0.9 -0.6 0.87c -0.18 -0.03 -0.84 -0.36 -1.26 -0.63c -0.78 -0.51 -1.38 -1.11 -1.86 -1.83c -1.77 -2.7 -0.99 -6.42 1.71 -8.19c 0.3 -0.21 0.81 -0.48 1.17 -0.63c 0.3 -0.09 1.02 -0.3 1.14 -0.3c 0.06 0 0.09 0 0.09 -0.03c 0.03 -0.03 -0.51 -1.92 -1.23 -4.26zm 3.78 7.41c -0.18 -0.03 -0.36 -0.06 -0.39 -0.06c -0.03 0 0 0.21 0.18 1.02c 0.75 3.18 1.26 6.3 1.5 9.09c 0.06 0.72 0 0.69 0.51 0.42c 0.78 -0.36 1.44 -0.96 1.98 -1.77c 1.08 -1.62 1.2 -3.69 0.3 -5.55c -0.81 -1.62 -2.31 -2.79 -4.08 -3.15z"></path></g><g class="" fill="currentColor" stroke="none" data-name="staff-extra time-signature"><path data-name="4" d="M 51.793 78.93c 0.27 -0.09 0.42 -0.12 0.54 -0.03c 0.09 0.06 0.15 0.21 0.15 0.3c -0.03 0.06 -1.92 2.31 -4.23 5.04c -2.31 2.73 -4.23 4.98 -4.26 5.01c -0.03 0.06 0.12 0.06 2.55 0.06l 2.61 0l 0 -2.37c 0 -2.19 0.03 -2.37 0.06 -2.46c 0.03 -0.06 0.21 -0.18 0.57 -0.42c 1.08 -0.72 1.38 -1.08 1.86 -2.16c 0.12 -0.3 0.24 -0.54 0.27 -0.57c 0.12 -0.12 0.39 -0.06 0.45 0.12c 0.06 0.09 0.06 0.57 0.06 3.96l 0 3.9l 1.08 0c 1.05 0 1.11 0 1.2 0.06c 0.24 0.15 0.24 0.54 0 0.69c -0.09 0.06 -0.15 0.06 -1.2 0.06l -1.08 0l 0 0.33c 0 0.57 0.09 1.11 0.3 1.53c 0.36 0.75 0.93 1.17 1.68 1.26c 0.3 0.03 0.39 0.09 0.39 0.3c 0 0.15 -0.03 0.18 -0.09 0.24c -0.06 0.06 -0.09 0.06 -0.48 0.06c -0.42 0 -0.69 -0.03 -2.1 -0.24c -0.9 -0.15 -1.77 -0.15 -2.67 0c -1.41 0.21 -1.68 0.24 -2.1 0.24c -0.39 0 -0.42 0 -0.48 -0.06c -0.06 -0.06 -0.06 -0.09 -0.06 -0.24c 0 -0.21 0.06 -0.27 0.36 -0.3c 0.75 -0.09 1.32 -0.51 1.68 -1.26c 0.21 -0.42 0.3 -0.96 0.3 -1.53l 0 -0.33l -2.7 0c -2.91 0 -2.85 0 -3.09 -0.15c -0.18 -0.12 -0.3 -0.39 -0.27 -0.54c 0.03 -0.06 0.18 -0.24 0.33 -0.45c 0.75 -0.9 1.59 -2.07 2.13 -3.03c 0.33 -0.54 0.84 -1.62 1.05 -2.16c 0.57 -1.41 0.84 -2.64 0.9 -4.05c 0.03 -0.63 0.06 -0.72 0.24 -0.81l 0.12 -0.06l 0.45 0.12c 0.66 0.18 1.02 0.24 1.47 0.27c 0.6 0.03 1.23 -0.09 2.01 -0.33z"></path><path data-name="4" d="M 51.793 94.43c 0.27 -0.09 0.42 -0.12 0.54 -0.03c 0.09 0.06 0.15 0.21 0.15 0.3c -0.03 0.06 -1.92 2.31 -4.23 5.04c -2.31 2.73 -4.23 4.98 -4.26 5.01c -0.03 0.06 0.12 0.06 2.55 0.06l 2.61 0l 0 -2.37c 0 -2.19 0.03 -2.37 0.06 -2.46c 0.03 -0.06 0.21 -0.18 0.57 -0.42c 1.08 -0.72 1.38 -1.08 1.86 -2.16c 0.12 -0.3 0.24 -0.54 0.27 -0.57c 0.12 -0.12 0.39 -0.06 0.45 0.12c 0.06 0.09 0.06 0.57 0.06 3.96l 0 3.9l 1.08 0c 1.05 0 1.11 0 1.2 0.06c 0.24 0.15 0.24 0.54 0 0.69c -0.09 0.06 -0.15 0.06 -1.2 0.06l -1.08 0l 0 0.33c 0 0.57 0.09 1.11 0.3 1.53c 0.36 0.75 0.93 1.17 1.68 1.26c 0.3 0.03 0.39 0.09 0.39 0.3c 0 0.15 -0.03 0.18 -0.09 0.24c -0.06 0.06 -0.09 0.06 -0.48 0.06c -0.42 0 -0.69 -0.03 -2.1 -0.24c -0.9 -0.15 -1.77 -0.15 -2.67 0c -1.41 0.21 -1.68 0.24 -2.1 0.24c -0.39 0 -0.42 0 -0.48 -0.06c -0.06 -0.06 -0.06 -0.09 -0.06 -0.24c 0 -0.21 0.06 -0.27 0.36 -0.3c 0.75 -0.09 1.32 -0.51 1.68 -1.26c 0.21 -0.42 0.3 -0.96 0.3 -1.53l 0 -0.33l -2.7 0c -2.91 0 -2.85 0 -3.09 -0.15c -0.18 -0.12 -0.3 -0.39 -0.27 -0.54c 0.03 -0.06 0.18 -0.24 0.33 -0.45c 0.75 -0.9 1.59 -2.07 2.13 -3.03c 0.33 -0.54 0.84 -1.62 1.05 -2.16c 0.57 -1.41 0.84 -2.64 0.9 -4.05c 0.03 -0.63 0.06 -0.72 0.24 -0.81l 0.12 -0.06l 0.45 0.12c 0.66 0.18 1.02 0.24 1.47 0.27c 0.6 0.03 1.23 -0.09 2.01 -0.33z"></path></g><g class="" fill="currentColor" stroke="none" data-name="note" selectable="false" data-index="0"><path data-name="C" d="M 71.03800000000001 113.07000000000001c 0.36 -0.03 1.2 0 1.53 0.06c 1.17 0.24 1.89 0.84 2.16 1.83c 0.06 0.18 0.06 0.3 0.06 0.66c 0 0.45 0 0.63 -0.15 1.08c -0.66 2.04 -3.06 3.93 -5.52 4.38c -0.54 0.09 -1.44 0.09 -1.83 0.03c -1.23 -0.27 -1.98 -0.87 -2.25 -1.86c -0.06 -0.18 -0.06 -0.3 -0.06 -0.66c 0 -0.45 0 -0.63 0.15 -1.08c 0.24 -0.78 0.75 -1.53 1.44 -2.22c 1.2 -1.2 2.85 -2.01 4.47 -2.22z" class="abcjs-notehead"></path><path d="M 62.95 116.77 L 76.76 116.77 L 76.76 117.47 L 62.95 117.47 z" stroke="none" fill="currentColor" data-name="ledger" class="abcjs-ledger"></path><path d="M 74.76 78.33L 74.76 116.34L 74.16 116.34L 74.16 78.33z" class="abcjs-stem" data-name="stem"></path></g><g class="" fill="currentColor" stroke="none" data-name="note" selectable="false" data-index="1"><path data-name="D" d="M 109.22875000000002 109.19500000000001c 0.36 -0.03 1.2 0 1.53 0.06c 1.17 0.24 1.89 0.84 2.16 1.83c 0.06 0.18 0.06 0.3 0.06 0.66c 0 0.45 0 0.63 -0.15 1.08c -0.66 2.04 -3.06 3.93 -5.52 4.38c -0.54 0.09 -1.44 0.09 -1.83 0.03c -1.23 -0.27 -1.98 -0.87 -2.25 -1.86c -0.06 -0.18 -0.06 -0.3 -0.06 -0.66c 0 -0.45 0 -0.63 0.15 -1.08c 0.24 -0.78 0.75 -1.53 1.44 -2.22c 1.2 -1.2 2.85 -2.01 4.47 -2.22z" class="abcjs-notehead"></path><path d="M 112.95 75.76L 112.95 112.47L 112.35 112.47L 112.35 75.76z" class="abcjs-stem" data-name="stem"></path></g><g class="" fill="currentColor" stroke="none" data-name="note" selectable="false" data-index="2"><path data-name="E" d="M 147.41950000000003 105.32000000000001c 0.36 -0.03 1.2 0 1.53 0.06c 1.17 0.24 1.89 0.84 2.16 1.83c 0.06 0.18 0.06 0.3 0.06 0.66c 0 0.45 0 0.63 -0.15 1.08c -0.66 2.04 -3.06 3.93 -5.52 4.38c -0.54 0.09 -1.44 0.09 -1.83 0.03c -1.23 -0.27 -1.98 -0.87 -2.25 -1.86c -0.06 -0.18 -0.06 -0.3 -0.06 -0.66c 0 -0.45 0 -0.63 0.15 -1.08c 0.24 -0.78 0.75 -1.53 1.44 -2.22c 1.2 -1.2 2.85 -2.01 4.47 -2.22z" class="abcjs-notehead"></path><path d="M 151.14 73.19L 151.14 108.59L 150.54 108.59L 150.54 73.19z" class="abcjs-stem" data-name="stem"></path></g><g class="" fill="currentColor" stroke="none" data-name="note" selectable="false" data-index="3"><path data-name="F" d="M 185.61025000000004 101.44500000000001c 0.36 -0.03 1.2 0 1.53 0.06c 1.17 0.24 1.89 0.84 2.16 1.83c 0.06 0.18 0.06 0.3 0.06 0.66c 0 0.45 0 0.63 -0.15 1.08c -0.66 2.04 -3.06 3.93 -5.52 4.38c -0.54 0.09 -1.44 0.09 -1.83 0.03c -1.23 -0.27 -1.98 -0.87 -2.25 -1.86c -0.06 -0.18 -0.06 -0.3 -0.06 -0.66c 0 -0.45 0 -0.63 0.15 -1.08c 0.24 -0.78 0.75 -1.53 1.44 -2.22c 1.2 -1.2 2.85 -2.01 4.47 -2.22z" class="abcjs-notehead"></path><path d="M 189.33 70.62L 189.33 104.72L 188.73 104.72L 188.73 70.62z" class="abcjs-stem" data-name="stem"></path></g><g class="" fill="currentColor" stroke="none" data-name="note" selectable="false" data-index="4"><path data-name="G" d="M 223.80100000000004 97.57000000000001c 0.36 -0.03 1.2 0 1.53 0.06c 1.17 0.24 1.89 0.84 2.16 1.83c 0.06 0.18 0.06 0.3 0.06 0.66c 0 0.45 0 0.63 -0.15 1.08c -0.66 2.04 -3.06 3.93 -5.52 4.38c -0.54 0.09 -1.44 0.09 -1.83 0.03c -1.23 -0.27 -1.98 -0.87 -2.25 -1.86c -0.06 -0.18 -0.06 -0.3 -0.06 -0.66c 0 -0.45 0 -0.63 0.15 -1.08c 0.24 -0.78 0.75 -1.53 1.44 -2.22c 1.2 -1.2 2.85 -2.01 4.47 -2.22z" class="abcjs-notehead"></path><path d="M 227.52 62.83L 227.52 100.84L 226.92 100.84L 226.92 62.83z" class="abcjs-stem" data-name="stem"></path></g><g class="" fill="currentColor" stroke="none" data-name="note" selectable="false" data-index="5"><path data-name="A" d="M 261.99175 93.69500000000001c 0.36 -0.03 1.2 0 1.53 0.06c 1.17 0.24 1.89 0.84 2.16 1.83c 0.06 0.18 0.06 0.3 0.06 0.66c 0 0.45 0 0.63 -0.15 1.08c -0.66 2.04 -3.06 3.93 -5.52 4.38c -0.54 0.09 -1.44 0.09 -1.83 0.03c -1.23 -0.27 -1.98 -0.87 -2.25 -1.86c -0.06 -0.18 -0.06 -0.3 -0.06 -0.66c 0 -0.45 0 -0.63 0.15 -1.08c 0.24 -0.78 0.75 -1.53 1.44 -2.22c 1.2 -1.2 2.85 -2.01 4.47 -2.22z" class="abcjs-notehead"></path><path d="M 265.71 60.26L 265.71 96.97L 265.11 96.97L 265.11 60.26z" class="abcjs-stem" data-name="stem"></path></g><g class="" fill="currentColor" stroke="none" data-name="note" selectable="false" data-index="6"><path data-name="B" d="M 300.1825 89.82000000000001c 0.36 -0.03 1.2 0 1.53 0.06c 1.17 0.24 1.89 0.84 2.16 1.83c 0.06 0.18 0.06 0.3 0.06 0.66c 0 0.45 0 0.63 -0.15 1.08c -0.66 2.04 -3.06 3.93 -5.52 4.38c -0.54 0.09 -1.44 0.09 -1.83 0.03c -1.23 -0.27 -1.98 -0.87 -2.25 -1.86c -0.06 -0.18 -0.06 -0.3 -0.06 -0.66c 0 -0.45 0 -0.63 0.15 -1.08c 0.24 -0.78 0.75 -1.53 1.44 -2.22c 1.2 -1.2 2.85 -2.01 4.47 -2.22z" class="abcjs-notehead"></path><path d="M 303.9 57.69L 303.9 93.09L 303.3 93.09L 303.3 57.69z" class="abcjs-stem" data-name="stem"></path></g><g class="" fill="currentColor" stroke="none" data-name="note" selectable="false" data-index="7"><path data-name="c" d="M 338.37325 85.94500000000001c 0.36 -0.03 1.2 0 1.53 0.06c 1.17 0.24 1.89 0.84 2.16 1.83c 0.06 0.18 0.06 0.3 0.06 0.66c 0 0.45 0 0.63 -0.15 1.08c -0.66 2.04 -3.06 3.93 -5.52 4.38c -0.54 0.09 -1.44 0.09 -1.83 0.03c -1.23 -0.27 -1.98 -0.87 -2.25 -1.86c -0.06 -0.18 -0.06 -0.3 -0.06 -0.66c 0 -0.45 0 -0.63 0.15 -1.08c 0.24 -0.78 0.75 -1.53 1.44 -2.22c 1.2 -1.2 2.85 -2.01 4.47 -2.22z" class="abcjs-notehead"></path><path d="M 342.09 55.12L 342.09 89.22L 341.49 89.22L 341.49 55.12z" class="abcjs-stem" data-name="stem"></path></g><g class="" fill="currentColor" stroke="none" data-name="bar"><path d="M 370.47 109.37L 370.47 78.37L 371.07 78.37L 371.07 109.37z" data-name="bar"></path></g><g class="" fill="currentColor" stroke="none" data-name="note" selectable="false" data-index="8"><path data-name="c" d="M 387.56399999999996 85.94500000000001c 0.36 -0.03 1.2 0 1.53 0.06c 1.17 0.24 1.89 0.84 2.16 1.83c 0.06 0.18 0.06 0.3 0.06 0.66c 0 0.45 0 0.63 -0.15 1.08c -0.66 2.04 -3.06 3.93 -5.52 4.38c -0.54 0.09 -1.44 0.09 -1.83 0.03c -1.23 -0.27 -1.98 -0.87 -2.25 -1.86c -0.06 -0.18 -0.06 -0.3 -0.06 -0.66c 0 -0.45 0 -0.63 0.15 -1.08c 0.24 -0.78 0.75 -1.53 1.44 -2.22c 1.2 -1.2 2.85 -2.01 4.47 -2.22z" class="abcjs-notehead"></path><path d="M 391.28 55.16L 391.28 89.22L 390.68 89.22L 390.68 55.16z" class="abcjs-stem" data-name="stem"></path></g><g class="" fill="currentColor" stroke="none" data-name="note" selectable="false" data-index="9"><path data-name="B" d="M 425.75474999999994 89.82000000000001c 0.36 -0.03 1.2 0 1.53 0.06c 1.17 0.24 1.89 0.84 2.16 1.83c 0.06 0.18 0.06 0.3 0.06 0.66c 0 0.45 0 0.63 -0.15 1.08c -0.66 2.04 -3.06 3.93 -5.52 4.38c -0.54 0.09 -1.44 0.09 -1.83 0.03c -1.23 -0.27 -1.98 -0.87 -2.25 -1.86c -0.06 -0.18 -0.06 -0.3 -0.06 -0.66c 0 -0.45 0 -0.63 0.15 -1.08c 0.24 -0.78 0.75 -1.53 1.44 -2.22c 1.2 -1.2 2.85 -2.01 4.47 -2.22z" class="abcjs-notehead"></path><path d="M 429.47 57.73L 429.47 93.09L 428.87 93.09L 428.87 57.73z" class="abcjs-stem" data-name="stem"></path></g><g class="" fill="currentColor" stroke="none" data-name="note" selectable="false" data-index="10"><path data-name="A" d="M 463.9454999999999 93.69500000000001c 0.36 -0.03 1.2 0 1.53 0.06c 1.17 0.24 1.89 0.84 2.16 1.83c 0.06 0.18 0.06 0.3 0.06 0.66c 0 0.45 0 0.63 -0.15 1.08c -0.66 2.04 -3.06 3.93 -5.52 4.38c -0.54 0.09 -1.44 0.09 -1.83 0.03c -1.23 -0.27 -1.98 -0.87 -2.25 -1.86c -0.06 -0.18 -0.06 -0.3 -0.06 -0.66c 0 -0.45 0 -0.63 0.15 -1.08c 0.24 -0.78 0.75 -1.53 1.44 -2.22c 1.2 -1.2 2.85 -2.01 4.47 -2.22z" class="abcjs-notehead"></path><path d="M 467.67 60.3L 467.67 96.97L 467.07 96.97L 467.07 60.3z" class="abcjs-stem" data-name="stem"></path></g><g class="" fill="currentColor" stroke="none" data-name="note" selectable="false" data-index="11"><path data-name="G" d="M 502.1362499999999 97.57000000000001c 0.36 -0.03 1.2 0 1.53 0.06c 1.17 0.24 1.89 0.84 2.16 1.83c 0.06 0.18 0.06 0.3 0.06 0.66c 0 0.45 0 0.63 -0.15 1.08c -0.66 2.04 -3.06 3.93 -5.52 4.38c -0.54 0.09 -1.44 0.09 -1.83 0.03c -1.23 -0.27 -1.98 -0.87 -2.25 -1.86c -0.06 -0.18 -0.06 -0.3 -0.06 -0.66c 0 -0.45 0 -0.63 0.15 -1.08c 0.24 -0.78 0.75 -1.53 1.44 -2.22c 1.2 -1.2 2.85 -2.01 4.47 -2.22z" class="abcjs-notehead"></path><path d="M 505.86 62.87L 505.86 100.84L 505.26 100.84L 505.26 62.87z" class="abcjs-stem" data-name="stem"></path></g><g class="" fill="currentColor" stroke="none" data-name="note" selectable="false" data-index="12"><path data-name="F" d="M 540.327 101.44500000000001c 0.36 -0.03 1.2 0 1.53 0.06c 1.17 0.24 1.89 0.84 2.16 1.83c 0.06 0.18 0.06 0.3 0.06 0.66c 0 0.45 0 0.63 -0.15 1.08c -0.66 2.04 -3.06 3.93 -5.52 4.38c -0.54 0.09 -1.44 0.09 -1.83 0.03c -1.23 -0.27 -1.98 -0.87 -2.25 -1.86c -0.06 -0.18 -0.06 -0.3 -0.06 -0.66c 0 -0.45 0 -0.63 0.15 -1.08c 0.24 -0.78 0.75 -1.53 1.44 -2.22c 1.2 -1.2 2.85 -2.01 4.47 -2.22z" class="abcjs-notehead"></path><path d="M 544.05 70.66L 544.05 104.72L 543.45 104.72L 543.45 70.66z" class="abcjs-stem" data-name="stem"></path></g><g class="" fill="currentColor" stroke="none" data-name="note" selectable="false" data-index="13"><path data-name="E" d="M 578.51775 105.32000000000001c 0.36 -0.03 1.2 0 1.53 0.06c 1.17 0.24 1.89 0.84 2.16 1.83c 0.06 0.18 0.06 0.3 0.06 0.66c 0 0.45 0 0.63 -0.15 1.08c -0.66 2.04 -3.06 3.93 -5.52 4.38c -0.54 0.09 -1.44 0.09 -1.83 0.03c -1.23 -0.27 -1.98 -0.87 -2.25 -1.86c -0.06 -0.18 -0.06 -0.3 -0.06 -0.66c 0 -0.45 0 -0.63 0.15 -1.08c 0.24 -0.78 0.75 -1.53 1.44 -2.22c 1.2 -1.2 2.85 -2.01 4.47 -2.22z" class="abcjs-notehead"></path><path d="M 582.24 73.23L 582.24 108.59L 581.64 108.59L 581.64 73.23z" class="abcjs-stem" data-name="stem"></path></g><g class="" fill="currentColor" stroke="none" data-name="note" selectable="false" data-index="14"><path data-name="D" d="M 616.7085 109.19500000000001c 0.36 -0.03 1.2 0 1.53 0.06c 1.17 0.24 1.89 0.84 2.16 1.83c 0.06 0.18 0.06 0.3 0.06 0.66c 0 0.45 0 0.63 -0.15 1.08c -0.66 2.04 -3.06 3.93 -5.52 4.38c -0.54 0.09 -1.44 0.09 -1.83 0.03c -1.23 -0.27 -1.98 -0.87 -2.25 -1.86c -0.06 -0.18 -0.06 -0.3 -0.06 -0.66c 0 -0.45 0 -0.63 0.15 -1.08c 0.24 -0.78 0.75 -1.53 1.44 -2.22c 1.2 -1.2 2.85 -2.01 4.47 -2.22z" class="abcjs-notehead"></path><path d="M 620.43 75.8L 620.43 112.47L 619.83 112.47L 619.83 75.8z" class="abcjs-stem" data-name="stem"></path></g><g class="" fill="currentColor" stroke="none" data-name="note" selectable="false" data-index="15"><path data-name="C" d="M 654.8992499999999 113.07000000000001c 0.36 -0.03 1.2 0 1.53 0.06c 1.17 0.24 1.89 0.84 2.16 1.83c 0.06 0.18 0.06 0.3 0.06 0.66c 0 0.45 0 0.63 -0.15 1.08c -0.66 2.04 -3.06 3.93 -5.52 4.38c -0.54 0.09 -1.44 0.09 -1.83 0.03c -1.23 -0.27 -1.98 -0.87 -2.25 -1.86c -0.06 -0.18 -0.06 -0.3 -0.06 -0.66c 0 -0.45 0 -0.63 0.15 -1.08c 0.24 -0.78 0.75 -1.53 1.44 -2.22c 1.2 -1.2 2.85 -2.01 4.47 -2.22z" class="abcjs-notehead"></path><path d="M 646.81 116.77 L 660.62 116.77 L 660.62 117.47 L 646.81 117.47 z" stroke="none" fill="currentColor" data-name="ledger" class="abcjs-ledger"></path><path d="M 658.62 78.37L 658.62 116.34L 658.02 116.34L 658.02 78.37z" class="abcjs-stem" data-name="stem"></path></g><g class="" fill="currentColor" stroke="none" data-name="bar"><path d="M 687 109.37L 687 78.37L 687.6 78.37L 687.6 109.37z" data-name="bar"></path></g><path d="M74.16 78.37 L189.33 70.62L189.33 74.5 L74.16 82.25z" stroke="none" fill="currentColor" class=""></path><path d="M226.92 62.87 L342.09 55.12L342.09 58.99 L226.92 66.75z" stroke="none" fill="currentColor" class=""></path><path d="M390.68 55.12 L505.86 62.87L505.86 66.75 L390.68 58.99z" stroke="none" fill="currentColor" class=""></path><path d="M543.45 70.62 L658.62 78.37L658.62 82.25 L543.45 74.5z" stroke="none" fill="currentColor" class=""></path><g><path d="M 8 157.02 L 688 157.02 L 688 157.72 L 8 157.72 z" stroke="none" fill="currentColor" class="abcjs-top-line"></path><path d="M 8 164.77 L 688 164.77 L 688 165.47 L 8 165.47 z" stroke="none" fill="currentColor"></path><path d="M 8 172.52 L 688 172.52 L 688 173.22 L 8 173.22 z" stroke="none" fill="currentColor"></path><path d="M 8 180.27 L 688 180.27 L 688 180.97 L 8 180.97 z" stroke="none" fill="currentColor"></path><path d="M 8 188.02 L 688 188.02 L 688 188.72 L 8 188.72 z" stroke="none" fill="currentColor"></path></g><g class="" fill="currentColor" stroke="none" data-name="staff-extra clef"><path data-name="clefs.F" d="M 19.3 157.32c 0.36 -0.03 1.65 0 2.13 0.03c 3.6 0.42 6.03 2.1 6.93 4.86c 0.27 0.84 0.36 1.5 0.36 2.58c 0 0.9 -0.03 1.35 -0.18 2.16c -0.78 3.78 -3.54 7.08 -8.37 9.96c -1.74 1.05 -3.87 2.13 -6.18 3.12c -0.39 0.18 -0.75 0.33 -0.81 0.36c -0.06 0.03 -0.15 0.06 -0.18 0.06c -0.15 0 -0.33 -0.18 -0.33 -0.33c 0 -0.15 0.06 -0.21 0.51 -0.48c 3 -1.77 5.13 -3.21 6.84 -4.74c 0.51 -0.45 1.59 -1.5 1.95 -1.95c 1.89 -2.19 2.88 -4.32 3.15 -6.78c 0.06 -0.42 0.06 -1.77 0 -2.19c -0.24 -2.01 -0.93 -3.63 -2.04 -4.71c -0.63 -0.63 -1.29 -1.02 -2.07 -1.2c -1.62 -0.39 -3.36 0.15 -4.56 1.44c -0.54 0.6 -1.05 1.47 -1.32 2.22l -0.09 0.21l 0.24 -0.12c 0.39 -0.21 0.63 -0.24 1.11 -0.24c 0.3 0 0.45 0 0.66 0.06c 1.92 0.48 2.85 2.55 1.95 4.38c -0.45 0.99 -1.41 1.62 -2.46 1.71c -1.47 0.09 -2.91 -0.87 -3.39 -2.25c -0.18 -0.57 -0.21 -1.32 -0.03 -2.28c 0.39 -2.25 1.83 -4.2 3.81 -5.19c 0.69 -0.36 1.59 -0.6 2.37 -0.69zm 11.58 2.52c 0.84 -0.21 1.71 0.3 1.89 1.14c 0.3 1.17 -0.72 2.19 -1.89 1.89c -0.99 -0.21 -1.5 -1.32 -1.02 -2.25c 0.18 -0.39 0.6 -0.69 1.02 -0.78zm 0 7.5c 0.84 -0.21 1.71 0.3 1.89 1.14c 0.21 0.87 -0.3 1.71 -1.14 1.89c -0.87 0.21 -1.71 -0.3 -1.89 -1.14c -0.21 -0.84 0.3 -1.71 1.14 -1.89z"></path></g><g class="" fill="currentColor" stroke="none" data-name="staff-extra time-signature"><path data-name="4" d="M 51.793 157.93c 0.27 -0.09 0.42 -0.12 0.54 -0.03c 0.09 0.06 0.15 0.21 0.15 0.3c -0.03 0.06 -1.92 2.31 -4.23 5.04c -2.31 2.73 -4.23 4.98 -4.26 5.01c -0.03 0.06 0.12 0.06 2.55 0.06l 2.61 0l 0 -2.37c 0 -2.19 0.03 -2.37 0.06 -2.46c 0.03 -0.06 0.21 -0.18 0.57 -0.42c 1.08 -0.72 1.38 -1.08 1.86 -2.16c 0.12 -0.3 0.24 -0.54 0.27 -0.57c 0.12 -0.12 0.39 -0.06 0.45 0.12c 0.06 0.09 0.06 0.57 0.06 3.96l 0 3.9l 1.08 0c 1.05 0 1.11 0 1.2 0.06c 0.24 0.15 0.24 0.54 0 0.69c -0.09 0.06 -0.15 0.06 -1.2 0.06l -1.08 0l 0 0.33c 0 0.57 0.09 1.11 0.3 1.53c 0.36 0.75 0.93 1.17 1.68 1.26c 0.3 0.03 0.39 0.09 0.39 0.3c 0 0.15 -0.03 0.18 -0.09 0.24c -0.06 0.06 -0.09 0.06 -0.48 0.06c -0.42 0 -0.69 -0.03 -2.1 -0.24c -0.9 -0.15 -1.77 -0.15 -2.67 0c -1.41 0.21 -1.68 0.24 -2.1 0.24c -0.39 0 -0.42 0 -0.48 -0.06c -0.06 -0.06 -0.06 -0.09 -0.06 -0.24c 0 -0.21 0.06 -0.27 0.36 -0.3c 0.75 -0.09 1.32 -0.51 1.68 -1.26c 0.21 -0.42 0.3 -0.96 0.3 -1.53l 0 -0.33l -2.7 0c -2.91 0 -2.85 0 -3.09 -0.15c -0.18 -0.12 -0.3 -0.39 -0.27 -0.54c 0.03 -0.06 0.18 -0.24 0.33 -0.45c 0.75 -0.9 1.59 -2.07 2.13 -3.03c 0.33 -0.54 0.84 -1.62 1.05 -2.16c 0.57 -1.41 0.84 -2.64 0.9 -4.05c 0.03 -0.63 0.06 -0.72 0.24 -0.81l 0.12 -0.06l 0.45 0.12c 0.66 0.18 1.02 0.24 1.47 0.27c 0.6 0.03 1.23 -0.09 2.01 -0.33z"></path><path data-name="4" d="M 51.793 173.43c 0.27 -0.09 0.42 -0.12 0.54 -0.03c 0.09 0.06 0.15 0.21 0.15 0.3c -0.03 0.06 -1.92 2.31 -4.23 5.04c -2.31 2.73 -4.23 4.98 -4.26 5.01c -0.03 0.06 0.12 0.06 2.55 0.06l 2.61 0l 0 -2.37c 0 -2.19 0.03 -2.37 0.06 -2.46c 0.03 -0.06 0.21 -0.18 0.57 -0.42c 1.08 -0.72 1.38 -1.08 1.86 -2.16c 0.12 -0.3 0.24 -0.54 0.27 -0.57c 0.12 -0.12 0.39 -0.06 0.45 0.12c 0.06 0.09 0.06 0.57 0.06 3.96l 0 3.9l 1.08 0c 1.05 0 1.11 0 1.2 0.06c 0.24 0.15 0.24 0.54 0 0.69c -0.09 0.06 -0.15 0.06 -1.2 0.06l -1.08 0l 0 0.33c 0 0.57 0.09 1.11 0.3 1.53c 0.36 0.75 0.93 1.17 1.68 1.26c 0.3 0.03 0.39 0.09 0.39 0.3c 0 0.15 -0.03 0.18 -0.09 0.24c -0.06 0.06 -0.09 0.06 -0.48 0.06c -0.42 0 -0.69 -0.03 -2.1 -0.24c -0.9 -0.15 -1.77 -0.15 -2.67 0c -1.41 0.21 -1.68 0.24 -2.1 0.24c -0.39 0 -0.42 0 -0.48 -0.06c -0.06 -0.06 -0.06 -0.09 -0.06 -0.24c 0 -0.21 0.06 -0.27 0.36 -0.3c 0.75 -0.09 1.32 -0.51 1.68 -1.26c 0.21 -0.42 0.3 -0.96 0.3 -1.53l 0 -0.33l -2.7 0c -2.91 0 -2.85 0 -3.09 -0.15c -0.18 -0.12 -0.3 -0.39 -0.27 -0.54c 0.03 -0.06 0.18 -0.24 0.33 -0.45c 0.75 -0.9 1.59 -2.07 2.13 -3.03c 0.33 -0.54 0.84 -1.62 1.05 -2.16c 0.57 -1.41 0.84 -2.64 0.9 -4.05c 0.03 -0.63 0.06 -0.72 0.24 -0.81l 0.12 -0.06l 0.45 0.12c 0.66 0.18 1.02 0.24 1.47 0.27c 0.6 0.03 1.23 -0.09 2.01 -0.33z"></path></g><g class="" fill="currentColor" stroke="none" data-name="note" selectable="false" data-index="16"><path data-name="C," d="M 71.03800000000001 172.695c 0.36 -0.03 1.2 0 1.53 0.06c 1.17 0.24 1.89 0.84 2.16 1.83c 0.06 0.18 0.06 0.3 0.06 0.66c 0 0.45 0 0.63 -0.15 1.08c -0.66 2.04 -3.06 3.93 -5.52 4.38c -0.54 0.09 -1.44 0.09 -1.83 0.03c -1.23 -0.27 -1.98 -0.87 -2.25 -1.86c -0.06 -0.18 -0.06 -0.3 -0.06 -0.66c 0 -0.45 0 -0.63 0.15 -1.08c 0.24 -0.78 0.75 -1.53 1.44 -2.22c 1.2 -1.2 2.85 -2.01 4.47 -2.22z" class="abcjs-notehead"></path><path d="M 64.95 205.81L 64.95 177.52L 65.55 177.52L 65.55 205.81z" class="abcjs-stem" data-name="stem"></path></g><g class="" fill="currentColor" stroke="none" data-name="note" selectable="false" data-index="17"><path data-name="D," d="M 109.22875000000002 168.82c 0.36 -0.03 1.2 0 1.53 0.06c 1.17 0.24 1.89 0.84 2.16 1.83c 0.06 0.18 0.06 0.3 0.06 0.66c 0 0.45 0 0.63 -0.15 1.08c -0.66 2.04 -3.06 3.93 -5.52 4.38c -0.54 0.09 -1.44 0.09 -1.83 0.03c -1.23 -0.27 -1.98 -0.87 -2.25 -1.86c -0.06 -0.18 -0.06 -0.3 -0.06 -0.66c 0 -0.45 0 -0.63 0.15 -1.08c 0.24 -0.78 0.75 -1.53 1.44 -2.22c 1.2 -1.2 2.85 -2.01 4.47 -2.22z" class="abcjs-notehead"></path><path d="M 103.14 203.24L 103.14 173.65L 103.74 173.65L 103.74 203.24z" class="abcjs-stem" data-name="stem"></path></g><g class="" fill="currentColor" stroke="none" data-name="note" selectable="false" data-index="18"><path data-name="E," d="M 147.41950000000003 164.945c 0.36 -0.03 1.2 0 1.53 0.06c 1.17 0.24 1.89 0.84 2.16 1.83c 0.06 0.18 0.06 0.3 0.06 0.66c 0 0.45 0 0.63 -0.15 1.08c -0.66 2.04 -3.06 3.93 -5.52 4.38c -0.54 0.09 -1.44 0.09 -1.83 0.03c -1.23 -0.27 -1.98 -0.87 -2.25 -1.86c -0.06 -0.18 -0.06 -0.3 -0.06 -0.66c 0 -0.45 0 -0.63 0.15 -1.08c 0.24 -0.78 0.75 -1.53 1.44 -2.22c 1.2 -1.2 2.85 -2.01 4.47 -2.22z" class="abcjs-notehead"></path><path d="M 141.33 200.67L 141.33 169.77L 141.93 169.77L 141.93 200.67z" class="abcjs-stem" data-name="stem"></path></g><g class="" fill="currentColor" stroke="none" data-name="note" selectable="false" data-index="19"><path data-name="F," d="M 185.61025000000004 161.07c 0.36 -0.03 1.2 0 1.53 0.06c 1.17 0.24 1.89 0.84 2.16 1.83c 0.06 0.18 0.06 0.3 0.06 0.66c 0 0.45 0 0.63 -0.15 1.08c -0.66 2.04 -3.06 3.93 -5.52 4.38c -0.54 0.09 -1.44 0.09 -1.83 0.03c -1.23 -0.27 -1.98 -0.87 -2.25 -1.86c -0.06 -0.18 -0.06 -0.3 -0.06 -0.66c 0 -0.45 0 -0.63 0.15 -1.08c 0.24 -0.78 0.75 -1.53 1.44 -2.22c 1.2 -1.2 2.85 -2.01 4.47 -2.22z" class="abcjs-notehead"></path><path d="M 179.52 198.1L 179.52 165.9L 180.12 165.9L 180.12 198.1z" class="abcjs-stem" data-name="stem"></path></g><g class="" fill="currentColor" stroke="none" data-name="note" selectable="false" data-index="20"><path data-name="G," d="M 223.80100000000004 157.195c 0.36 -0.03 1.2 0 1.53 0.06c 1.17 0.24 1.89 0.84 2.16 1.83c 0.06 0.18 0.06 0.3 0.06 0.66c 0 0.45 0 0.63 -0.15 1.08c -0.66 2.04 -3.06 3.93 -5.52 4.38c -0.54 0.09 -1.44 0.09 -1.83 0.03c -1.23 -0.27 -1.98 -0.87 -2.25 -1.86c -0.06 -0.18 -0.06 -0.3 -0.06 -0.66c 0 -0.45 0 -0.63 0.15 -1.08c 0.24 -0.78 0.75 -1.53 1.44 -2.22c 1.2 -1.2 2.85 -2.01 4.47 -2.22z" class="abcjs-notehead"></path><path d="M 217.71 190.31L 217.71 162.02L 218.31 162.02L 218.31 190.31z" class="abcjs-stem" data-name="stem"></path></g><g class="" fill="currentColor" stroke="none" data-name="note" selectable="false" data-index="21"><path data-name="A," d="M 261.99175 153.32c 0.36 -0.03 1.2 0 1.53 0.06c 1.17 0.24 1.89 0.84 2.16 1.83c 0.06 0.18 0.06 0.3 0.06 0.66c 0 0.45 0 0.63 -0.15 1.08c -0.66 2.04 -3.06 3.93 -5.52 4.38c -0.54 0.09 -1.44 0.09 -1.83 0.03c -1.23 -0.27 -1.98 -0.87 -2.25 -1.86c -0.06 -0.18 -0.06 -0.3 -0.06 -0.66c 0 -0.45 0 -0.63 0.15 -1.08c 0.24 -0.78 0.75 -1.53 1.44 -2.22c 1.2 -1.2 2.85 -2.01 4.47 -2.22z" class="abcjs-notehead"></path><path d="M 255.9 187.74L 255.9 158.15L 256.5 158.15L 256.5 187.74z" class="abcjs-stem" data-name="stem"></path></g><g class="" fill="currentColor" stroke="none" data-name="note" selectable="false" data-index="22"><path data-name="B," d="M 300.1825 149.445c 0.36 -0.03 1.2 0 1.53 0.06c 1.17 0.24 1.89 0.84 2.16 1.83c 0.06 0.18 0.06 0.3 0.06 0.66c 0 0.45 0 0.63 -0.15 1.08c -0.66 2.04 -3.06 3.93 -5.52 4.38c -0.54 0.09 -1.44 0.09 -1.83 0.03c -1.23 -0.27 -1.98 -0.87 -2.25 -1.86c -0.06 -0.18 -0.06 -0.3 -0.06 -0.66c 0 -0.45 0 -0.63 0.15 -1.08c 0.24 -0.78 0.75 -1.53 1.44 -2.22c 1.2 -1.2 2.85 -2.01 4.47 -2.22z" class="abcjs-notehead"></path><path d="M 294.09 185.17L 294.09 154.27L 294.69 154.27L 294.69 185.17z" class="abcjs-stem" data-name="stem"></path></g><g class="" fill="currentColor" stroke="none" data-name="note" selectable="false" data-index="23"><path data-name="C" d="M 338.37325 145.57c 0.36 -0.03 1.2 0 1.53 0.06c 1.17 0.24 1.89 0.84 2.16 1.83c 0.06 0.18 0.06 0.3 0.06 0.66c 0 0.45 0 0.63 -0.15 1.08c -0.66 2.04 -3.06 3.93 -5.52 4.38c -0.54 0.09 -1.44 0.09 -1.83 0.03c -1.23 -0.27 -1.98 -0.87 -2.25 -1.86c -0.06 -0.18 -0.06 -0.3 -0.06 -0.66c 0 -0.45 0 -0.63 0.15 -1.08c 0.24 -0.78 0.75 -1.53 1.44 -2.22c 1.2 -1.2 2.85 -2.01 4.47 -2.22z" class="abcjs-notehead"></path><path d="M 330.28 149.27 L 344.09 149.27 L 344.09 149.97 L 330.28 149.97 z" stroke="none" fill="currentColor" data-name="ledger" class="abcjs-ledger"></path><path d="M 332.28 182.6L 332.28 150.4L 332.88 150.4L 332.88 182.6z" class="abcjs-stem" data-name="stem"></path></g><g class="" fill="currentColor" stroke="none" data-name="bar"><path d="M 370.47 188.37L 370.47 157.37L 371.07 157.37L 371.07 188.37z" data-name="bar"></path></g><g class="" fill="currentColor" stroke="none" data-name="note" selectable="false" data-index="24"><path data-name="C" d="M 387.56399999999996 145.57c 0.36 -0.03 1.2 0 1.53 0.06c 1.17 0.24 1.89 0.84 2.16 1.83c 0.06 0.18 0.06 0.3 0.06 0.66c 0 0.45 0 0.63 -0.15 1.08c -0.66 2.04 -3.06 3.93 -5.52 4.38c -0.54 0.09 -1.44 0.09 -1.83 0.03c -1.23 -0.27 -1.98 -0.87 -2.25 -1.86c -0.06 -0.18 -0.06 -0.3 -0.06 -0.66c 0 -0.45 0 -0.63 0.15 -1.08c 0.24 -0.78 0.75 -1.53 1.44 -2.22c 1.2 -1.2 2.85 -2.01 4.47 -2.22z" class="abcjs-notehead"></path><path d="M 379.47 149.27 L 393.28 149.27 L 393.28 149.97 L 379.47 149.97 z" stroke="none" fill="currentColor" data-name="ledger" class="abcjs-ledger"></path><path d="M 381.47 182.56L 381.47 150.4L 382.07 150.4L 382.07 182.56z" class="abcjs-stem" data-name="stem"></path></g><g class="" fill="currentColor" stroke="none" data-name="note" selectable="false" data-index="25"><path data-name="B," d="M 425.75474999999994 149.445c 0.36 -0.03 1.2 0 1.53 0.06c 1.17 0.24 1.89 0.84 2.16 1.83c 0.06 0.18 0.06 0.3 0.06 0.66c 0 0.45 0 0.63 -0.15 1.08c -0.66 2.04 -3.06 3.93 -5.52 4.38c -0.54 0.09 -1.44 0.09 -1.83 0.03c -1.23 -0.27 -1.98 -0.87 -2.25 -1.86c -0.06 -0.18 -0.06 -0.3 -0.06 -0.66c 0 -0.45 0 -0.63 0.15 -1.08c 0.24 -0.78 0.75 -1.53 1.44 -2.22c 1.2 -1.2 2.85 -2.01 4.47 -2.22z" class="abcjs-notehead"></path><path d="M 419.66 185.13L 419.66 154.27L 420.26 154.27L 420.26 185.13z" class="abcjs-stem" data-name="stem"></path></g><g class="" fill="currentColor" stroke="none" data-name="note" selectable="false" data-index="26"><path data-name="A," d="M 463.9454999999999 153.32c 0.36 -0.03 1.2 0 1.53 0.06c 1.17 0.24 1.89 0.84 2.16 1.83c 0.06 0.18 0.06 0.3 0.06 0.66c 0 0.45 0 0.63 -0.15 1.08c -0.66 2.04 -3.06 3.93 -5.52 4.38c -0.54 0.09 -1.44 0.09 -1.83 0.03c -1.23 -0.27 -1.98 -0.87 -2.25 -1.86c -0.06 -0.18 -0.06 -0.3 -0.06 -0.66c 0 -0.45 0 -0.63 0.15 -1.08c 0.24 -0.78 0.75 -1.53 1.44 -2.22c 1.2 -1.2 2.85 -2.01 4.47 -2.22z" class="abcjs-notehead"></path><path d="M 457.86 187.7L 457.86 158.15L 458.46 158.15L 458.46 187.7z" class="abcjs-stem" data-name="stem"></path></g><g class="" fill="currentColor" stroke="none" data-name="note" selectable="false" data-index="27"><path data-name="G," d="M 502.1362499999999 157.195c 0.36 -0.03 1.2 0 1.53 0.06c 1.17 0.24 1.89 0.84 2.16 1.83c 0.06 0.18 0.06 0.3 0.06 0.66c 0 0.45 0 0.63 -0.15 1.08c -0.66 2.04 -3.06 3.93 -5.52 4.38c -0.54 0.09 -1.44 0.09 -1.83 0.03c -1.23 -0.27 -1.98 -0.87 -2.25 -1.86c -0.06 -0.18 -0.06 -0.3 -0.06 -0.66c 0 -0.45 0 -0.63 0.15 -1.08c 0.24 -0.78 0.75 -1.53 1.44 -2.22c 1.2 -1.2 2.85 -2.01 4.47 -2.22z" class="abcjs-notehead"></path><path d="M 496.05 190.27L 496.05 162.02L 496.65 162.02L 496.65 190.27z" class="abcjs-stem" data-name="stem"></path></g><g class="" fill="currentColor" stroke="none" data-name="note" selectable="false" data-index="28"><path data-name="F," d="M 540.327 161.07c 0.36 -0.03 1.2 0 1.53 0.06c 1.17 0.24 1.89 0.84 2.16 1.83c 0.06 0.18 0.06 0.3 0.06 0.66c 0 0.45 0 0.63 -0.15 1.08c -0.66 2.04 -3.06 3.93 -5.52 4.38c -0.54 0.09 -1.44 0.09 -1.83 0.03c -1.23 -0.27 -1.98 -0.87 -2.25 -1.86c -0.06 -0.18 -0.06 -0.3 -0.06 -0.66c 0 -0.45 0 -0.63 0.15 -1.08c 0.24 -0.78 0.75 -1.53 1.44 -2.22c 1.2 -1.2 2.85 -2.01 4.47 -2.22z" class="abcjs-notehead"></path><path d="M 534.24 198.06L 534.24 165.9L 534.84 165.9L 534.84 198.06z" class="abcjs-stem" data-name="stem"></path></g><g class="" fill="currentColor" stroke="none" data-name="note" selectable="false" data-index="29"><path data-name="E," d="M 578.51775 164.945c 0.36 -0.03 1.2 0 1.53 0.06c 1.17 0.24 1.89 0.84 2.16 1.83c 0.06 0.18 0.06 0.3 0.06 0.66c 0 0.45 0 0.63 -0.15 1.08c -0.66 2.04 -3.06 3.93 -5.52 4.38c -0.54 0.09 -1.44 0.09 -1.83 0.03c -1.23 -0.27 -1.98 -0.87 -2.25 -1.86c -0.06 -0.18 -0.06 -0.3 -0.06 -0.66c 0 -0.45 0 -0.63 0.15 -1.08c 0.24 -0.78 0.75 -1.53 1.44 -2.22c 1.2 -1.2 2.85 -2.01 4.47 -2.22z" class="abcjs-notehead"></path><path d="M 572.43 200.63L 572.43 169.77L 573.03 169.77L 573.03 200.63z" class="abcjs-stem" data-name="stem"></path></g><g class="" fill="currentColor" stroke="none" data-name="note" selectable="false" data-index="30"><path data-name="D," d="M 616.7085 168.82c 0.36 -0.03 1.2 0 1.53 0.06c 1.17 0.24 1.89 0.84 2.16 1.83c 0.06 0.18 0.06 0.3 0.06 0.66c 0 0.45 0 0.63 -0.15 1.08c -0.66 2.04 -3.06 3.93 -5.52 4.38c -0.54 0.09 -1.44 0.09 -1.83 0.03c -1.23 -0.27 -1.98 -0.87 -2.25 -1.86c -0.06 -0.18 -0.06 -0.3 -0.06 -0.66c 0 -0.45 0 -0.63 0.15 -1.08c 0.24 -0.78 0.75 -1.53 1.44 -2.22c 1.2 -1.2 2.85 -2.01 4.47 -2.22z" class="abcjs-notehead"></path><path d="M 610.62 203.2L 610.62 173.65L 611.22 173.65L 611.22 203.2z" class="abcjs-stem" data-name="stem"></path></g><g class="" fill="currentColor" stroke="none" data-name="note" selectable="false" data-index="31"><path data-name="C," d="M 654.8992499999999 172.695c 0.36 -0.03 1.2 0 1.53 0.06c 1.17 0.24 1.89 0.84 2.16 1.83c 0.06 0.18 0.06 0.3 0.06 0.66c 0 0.45 0 0.63 -0.15 1.08c -0.66 2.04 -3.06 3.93 -5.52 4.38c -0.54 0.09 -1.44 0.09 -1.83 0.03c -1.23 -0.27 -1.98 -0.87 -2.25 -1.86c -0.06 -0.18 -0.06 -0.3 -0.06 -0.66c 0 -0.45 0 -0.63 0.15 -1.08c 0.24 -0.78 0.75 -1.53 1.44 -2.22c 1.2 -1.2 2.85 -2.01 4.47 -2.22z" class="abcjs-notehead"></path><path d="M 648.81 205.77L 648.81 177.52L 649.41 177.52L 649.41 205.77z" class="abcjs-stem" data-name="stem"></path></g><g class="" fill="currentColor" stroke="none" data-name="bar"><path d="M 687 188.37L 687 109.37L 687.6 109.37L 687.6 188.37z" data-name="bar"></path></g><path d="M64.95 207.75 L180.12 200L180.12 196.13 L64.95 203.88z" stroke="none" fill="currentColor" class=""></path><path d="M217.71 192.25 L332.88 184.5L332.88 180.63 L217.71 188.38z" stroke="none" fill="currentColor" class=""></path><path d="M381.47 184.5 L496.65 192.25L496.65 188.38 L381.47 180.63z" stroke="none" fill="currentColor" class=""></path><path d="M534.24 200 L649.41 207.75L649.41 203.88 L534.24 196.13z" stroke="none" fill="currentColor" class=""></path><path d="M 8 188.37L 8 78.37L 8.6 78.37L 8.6 188.37z" stroke="none" fill="currentColor"></path></g></svg>
